<svg width="1540.000000pt" height="280.000000pt" viewBox="0 0 1540.000000 280.000000" xmlns="http://www.w3.org/2000/svg">
  <g transform="translate(0.000000,280.000000) scale(0.100000,-0.100000)" fill="#023d84" stroke="none">
    <path d="M0 1400 l0 -1400 7700 0 7700 0 0 1400 0 1400 -7700 0 -7700 0 0
-1400z m9655 652 c39 -10 96 -31 128 -47 58 -29 169 -112 172 -130 1 -5 -31
-41 -71 -79 l-73 -69 -40 32 c-54 43 -137 78 -217 92 l-67 12 -73 -7 -73 -6
-66 -26 -66 -27 -49 -47 c-26 -26 -60 -71 -75 -100 -31 -62 -55 -163 -55 -241
0 -116 37 -239 97 -314 36 -46 113 -97 183 -121 l55 -19 95 1 95 0 55 18 c30
9 73 30 95 45 l40 27 3 127 3 127 -151 0 -150 0 0 105 0 105 280 0 280 0 0
-260 0 -261 -68 -67 -69 -68 -71 -37 c-39 -21 -106 -47 -149 -58 l-78 -21
-115 0 -115 0 -78 21 c-43 11 -110 37 -150 58 l-72 38 -76 75 -77 75 -36 74
c-21 40 -46 107 -57 149 l-19 75 0 102 0 102 19 75 c66 258 255 433 523 484
l73 14 95 -5 c52 -2 127 -13 165 -23z m1685 -112 l0 -110 -370 0 -370 0 0
-160 0 -160 345 0 345 0 0 -110 0 -110 -345 0 -345 0 0 -270 0 -271 -127 3
-128 3 -3 648 -2 647 500 0 500 0 0 -110z m1140 0 l0 -110 -180 0 -180 0 0
-535 0 -535 -125 0 -125 0 0 535 0 535 -180 0 -180 0 0 110 0 110 485 0 485 0
0 -110z m2160 -535 l0 -645 -645 0 -645 0 0 645 0 645 645 0 645 0 0 -645z" />
  </g>
  <g transform="translate(0.000000,280.000000) scale(0.100000,-0.100000)" fill="#fefefe" stroke="none">
    <path d="M9348 2083 l-38 -4 0 -13 0 -13 -30 5 -30 4 0 -20 c0 -11 6 -23 13
-25 l12 -5 -13 -1 c-8 -1 -16 8 -19 19 -3 11 -10 20 -16 20 -14 0 -100 -32
-107 -40 -3 -3 -17 -11 -32 -19 -16 -8 -28 -18 -28 -23 0 -4 -5 -8 -11 -8 -20
0 -99 -63 -99 -79 0 -9 -10 -21 -21 -26 -26 -12 -72 -92 -65 -111 l5 -14 -14
0 c-17 0 -38 -36 -32 -53 2 -7 -2 -16 -9 -22 -8 -5 -20 -38 -28 -72 l-14 -61
11 -11 11 -11 -12 0 -12 0 0 -74 0 -75 18 -4 17 -5 -19 -1 -18 -1 6 -32 c3
-18 8 -49 10 -68 6 -48 23 -90 36 -90 5 0 10 -11 10 -25 0 -14 5 -25 10 -25 6
0 10 -7 10 -15 0 -8 5 -15 10 -15 6 0 10 -14 10 -31 l0 -31 20 5 20 5 0 -27 0
-28 53 -50 c59 -56 135 -109 143 -100 3 3 14 -3 24 -13 21 -21 109 -50 153
-50 16 0 57 -7 91 -16 l61 -16 70 6 c39 4 94 11 123 17 l52 10 1 17 1 17 5
-12 c5 -14 33 -18 33 -5 0 4 20 14 45 21 25 7 45 17 45 21 0 4 10 11 23 14 25
7 81 49 111 85 12 13 33 36 49 50 l27 25 0 268 0 268 -290 0 -290 0 0 -116 0
-116 153 4 152 4 -3 -84 c-2 -46 1 -96 6 -112 l11 -29 -23 -15 c-13 -8 -29
-21 -37 -28 -27 -26 -88 -47 -168 -58 l-80 -12 -63 12 c-35 6 -72 13 -83 13
-11 1 -29 10 -39 20 -11 9 -25 17 -31 17 -7 0 -25 11 -41 25 -16 14 -32 25
-36 25 -5 0 -8 7 -8 15 0 7 -6 18 -14 22 -7 4 -27 35 -44 68 l-30 60 -12 72
c-11 70 -9 200 3 220 4 5 9 29 13 51 4 23 10 42 14 42 4 0 15 18 25 40 10 22
22 40 27 40 4 0 8 11 8 25 l0 25 18 0 c10 0 36 13 58 30 21 16 47 30 57 30 9
0 17 4 17 9 0 9 117 29 213 35 31 3 57 1 57 -4 0 -5 10 -12 23 -15 60 -17 137
-52 178 -82 26 -18 50 -33 54 -33 11 0 95 83 95 95 0 5 10 15 22 20 12 6 26
18 32 27 l10 17 -34 30 c-19 17 -38 31 -42 31 -4 0 -18 10 -31 23 -47 45 -137
88 -184 89 -18 0 -33 5 -33 10 l0 10 -36 -7 -37 -6 -8 13 -8 13 -88 1 c-48 1
-105 0 -125 -3z m202 -183 c0 -5 -5 -10 -11 -10 -5 0 -7 5 -4 10 3 6 8 10 11
10 2 0 4 -4 4 -10z m-533 -606 c-3 -3 -12 -4 -19 -1 l-13 5 19 1 c11 1 17 -2
13 -5z m340 -510 c-3 -3 -12 -4 -19 -1 l-13 5 19 1 c11 1 17 -2 13 -5z" />
    <path d="M10350 2035 c0 -14 -4 -25 -10 -25 l-10 0 0 -610 0 -610 9 0 c4 0 6
-11 4 -24 l-5 -24 120 -1 c66 -1 127 1 136 5 21 8 21 31 -1 37 l-18 5 18 1 17
1 0 245 0 245 345 0 345 0 0 120 0 120 -330 0 -330 0 0 -10 c0 -5 -7 -7 -15
-4 l-15 6 2 155 3 155 351 -2 c193 0 358 2 367 6 l17 6 0 114 0 114 -500 0
-500 0 0 -25z" />
    <path d="M11507 2053 c-3 -5 -2 -57 2 -118 l6 -110 173 -3 172 -2 0 -535 0
-535 130 0 129 0 2 498 c2 580 2 543 -2 560 l-4 13 185 -1 185 -1 0 101 0 100
-17 0 -18 0 0 20 0 20 -469 0 c-259 0 -472 -3 -474 -7z" />
    <path d="M12460 2045 c0 -8 7 -15 15 -15 8 0 15 7 15 15 0 8 -7 15 -15 15 -8
0 -15 -7 -15 -15z" />
    <path d="M13358 2053 l-18 -4 0 -630 0 -629 15 0 c8 0 15 -4 15 -10 0 -5 -7
-10 -15 -10 -8 0 -15 -4 -15 -10 l0 -10 653 0 652 0 0 655 0 655 -635 -1
c-349 -1 -643 -3 -652 -6z" />
  </g>
  <g transform="translate(0.000000,280.000000) scale(0.100000,-0.100000)" fill="#416d9f" stroke="none">
    <path d="M9398 2083 c6 -2 18 -2 25 0 6 3 1 5 -13 5 -14 0 -19 -2 -12 -5z" />
    <path d="M9508 2083 c7 -3 16 -2 19 1 4 3 -2 6 -13 5 l-19 -1 13 -5z" />
    <path d="M9835 1980 c3 -5 11 -10 16 -10 6 0 7 5 4 10 -3 6 -11 10 -16 10 -6
0 -7 -4 -4 -10z" />
    <path d="M9956 1874 c-8 -22 1 -31 16 -16 l12 12 -11 11 -10 10 -7 -17z" />
    <path d="M8907 1843 c-4 -3 -7 -11 -7 -17 l0 -10 12 12 c6 6 9 14 7 17 -3 3
-9 2 -12 -2z" />
    <path d="M9290 1830 c0 -5 4 -10 9 -10 6 0 13 5 16 10 l6 10 -15 0 c-9 0 -16
-4 -16 -10z" />
    <path d="M10610 1828 c0 -5 167 -8 370 -8 204 0 370 3 370 8 0 4 -166 7 -370
7 -203 0 -370 -3 -370 -7z" />
    <path d="M11520 1828 c0 -5 78 -7 173 -6 175 2 155 6 -56 10 -64 2 -117 0
-117 -4z" />
    <path d="M12143 1828 c-2 -5 75 -8 171 -8 97 0 176 3 176 8 0 4 -77 7 -171 7
-94 0 -173 -3 -176 -7z" />
    <path d="M9730 1776 c0 -2 7 -9 15 -16 l15 -12 0 10 c0 5 -7 12 -15 16 -8 3
-15 4 -15 2z" />
    <path d="M9093 1665 c0 -8 4 -12 9 -9 4 3 8 9 8 15 0 5 -4 9 -8 9 -5 0 -9 -7
-9 -15z" />
    <path d="M9041 1484 l1 -19 5 13 c3 7 2 16 -1 19 -3 4 -6 -2 -5 -13z" />
    <path d="M9041 1324 l1 -19 5 13 c3 7 2 16 -1 19 -3 4 -6 -2 -5 -13z" />
    <path d="M9440 1300 c0 -5 5 -10 11 -10 5 0 7 5 4 10 -3 6 -8 10 -11 10 -2 0
-4 -4 -4 -10z" />
    <path d="M9685 1300 l-6 -10 30 0 31 0 0 -95 c0 -52 3 -95 8 -95 5 0 7 87 2
203 0 11 -58 9 -65 -3z" />
    <path d="M10610 1288 c0 -5 155 -8 345 -8 190 0 345 3 345 8 0 4 -155 7 -345
7 -190 0 -345 -3 -345 -7z" />
    <path d="M9740 1075 c0 -8 5 -15 10 -15 6 0 10 7 10 15 0 8 -4 15 -10 15 -5 0
-10 -7 -10 -15z" />
    <path d="M9170 1050 c0 -5 7 -10 16 -10 l15 0 -6 10 c-3 6 -10 10 -16 10 -5 0
-9 -4 -9 -10z" />
    <path d="M9685 1020 c-3 -5 -2 -10 4 -10 5 0 13 5 16 10 3 6 2 10 -4 10 -5 0
-13 -4 -16 -10z" />
    <path d="M10007 993 c-4 -3 -7 -11 -7 -17 l0 -10 12 12 c6 6 9 14 7 17 -3 3
-9 2 -12 -2z" />
    <path d="M9925 899 c-11 -17 1 -21 15 -4 l12 15 -10 0 c-6 0 -14 -5 -17 -11z" />
    <path d="M9086 818 c3 -4 9 -8 15 -8 5 0 9 4 9 8 0 5 -7 9 -15 9 -8 0 -12 -4
-9 -9z" />
    <path d="M9145 790 c3 -5 11 -10 16 -10 6 0 7 5 4 10 -3 6 -11 10 -16 10 -6 0
-7 -4 -4 -10z" />
    <path d="M9265 750 c3 -5 10 -10 16 -10 5 0 9 5 9 10 0 6 -7 10 -16 10 l-15 0
6 -10z" />
    <path d="M10337 748 c6 -10 273 -10 273 0 0 4 -63 7 -139 7 -77 0 -137 -3
-134 -7z" />
    <path d="M9450 730 l-15 -10 40 1 40 0 -20 9 c-26 11 -28 11 -45 0z" />
    <path d="M3847 3 c2119 -2 5587 -2 7705 0 2119 1 386 2 -3852 2 -4238 0 -5971
-1 -3853 -2z" />
  </g>
  <g transform="translate(0.000000,280.000000) scale(0.100000,-0.100000)" fill="#fefcf6" stroke="none">
    <path d="M9525 2080 c3 -5 11 -10 16 -10 6 0 7 5 4 10 -3 6 -11 10 -16 10 -6
0 -7 -4 -4 -10z" />
    <path d="M9335 2067 c7 -16 37 -19 32 -3 -2 6 -11 12 -20 14 l-17 3 5 -14z" />
    <path d="M9248 2063 l-18 -4 0 -20 c0 -10 -5 -19 -11 -19 l-11 0 6 15 c3 8 1
15 -4 15 -6 0 -10 -4 -10 -10 0 -5 -3 -9 -7 -9 -21 3 -33 -3 -33 -16 l0 -16
86 5 c47 2 88 7 92 10 3 3 -3 6 -14 7 -46 2 -74 13 -61 25 3 3 23 0 44 -7 21
-7 41 -12 45 -11 4 1 5 -5 2 -13 l-6 -15 12 0 11 0 -3 22 -3 21 -20 3 c-11 2
-21 8 -23 13 -4 11 -41 13 -74 4z" />
    <path d="M9551 2056 l-11 -13 27 5 27 5 -15 -24 -16 -24 28 0 28 0 5 18 4 18
-14 -12 c-14 -12 -18 -7 -15 24 l2 17 -19 0 c-11 0 -25 -6 -31 -14z" />
    <path d="M9654 2036 l-22 -21 24 -2 c33 -3 52 -3 67 -1 6 0 23 -2 36 -6 l23
-8 -4 13 c-3 8 -14 14 -26 13 -11 0 -20 4 -19 9 1 5 -4 12 -12 15 l-14 5 7
-12 7 -11 -17 7 -17 6 6 -16 6 -16 -15 6 -15 6 10 10 c13 13 14 27 4 26 -5 -1
-18 -11 -29 -23z" />
    <path d="M10370 2050 c0 -5 -9 -10 -21 -10 l-20 0 3 -17 c2 -10 12 -19 22 -21
l18 -4 -6 11 -7 11 25 -10 26 -10 0 10 0 10 444 0 444 0 5 13 5 12 1 -17 c1
-10 -4 -18 -9 -18 l-11 0 3 -87 3 -86 25 -3 c14 -1 19 0 13 2 l-13 6 0 89 0
89 11 0 10 0 -7 -12 -7 -11 11 7 c17 11 15 36 -4 36 l-15 0 6 10 6 10 -20 0
c-12 0 -21 -4 -21 -10 l0 -10 -449 -2 -448 -3 4 13 5 12 -16 0 c-9 0 -16 -4
-16 -10z m937 -172 c-2 -24 -4 -5 -4 42 0 47 2 66 4 43 2 -24 2 -62 0 -85z" />
    <path d="M14600 2048 c0 -7 0 -301 -1 -653 l0 -640 13 0 13 0 -3 19 -4 20 16
-13 16 -13 0 631 0 631 -12 0 -13 0 3 -615 2 -615 -10 0 -10 0 0 611 0 610 10
20 11 19 -16 0 c-8 0 -15 -6 -15 -12z m17 -1285 c-4 -3 -10 -3 -14 0 -3 4 0 7
7 7 7 0 10 -3 7 -7z" />
    <path d="M11512 2035 c1 -5 -2 -17 -6 -26 -4 -9 -6 -53 -4 -99 l3 -83 10 -4
10 -3 0 97 0 98 457 2 c252 1 457 -1 457 -5 -1 -4 0 -47 2 -97 l3 -90 5 89 6
89 10 4 10 3 -3 -81 -4 -81 11 -11 11 -11 0 107 0 107 -490 2 -490 3 2 -10z" />
    <path d="M13358 2025 c5 -28 22 -24 22 6 l0 19 -14 0 -13 0 5 -25z" />
    <path d="M9110 2001 c0 -6 5 -13 10 -16 l10 -6 0 15 c0 9 -4 16 -10 16 -5 0
-10 -4 -10 -9z" />
    <path d="M9080 1984 c0 -11 31 -64 38 -64 4 0 8 11 8 25 1 14 -2 22 -7 19 -5
-3 -9 -1 -9 4 0 6 -7 12 -15 16 -8 3 -15 3 -15 0z" />
    <path d="M9806 1961 l28 -24 4 12 c6 17 20 13 18 -5 -1 -21 14 -27 34 -14 l15
10 -24 20 -24 20 -20 -6 -20 -6 7 10 6 10 -26 -2 -25 -1 27 -24z m71 -28 c-4
-3 -10 -3 -14 0 -3 4 0 7 7 7 7 0 10 -3 7 -7z" />
    <path d="M9044 1964 l-11 -5 4 -43 5 -44 -23 -16 -23 -16 16 0 c22 0 35 19 40
60 3 19 8 43 13 53 l7 17 -8 -1 c-5 0 -14 -3 -20 -5z" />
    <path d="M9773 1955 c0 -8 4 -12 9 -9 5 3 6 10 3 15 -9 13 -12 11 -12 -6z" />
    <path d="M9076 1935 l-5 -15 14 0 14 0 -5 15 c-4 8 -7 15 -9 15 -2 0 -5 -7 -9
-15z" />
    <path d="M9804 1928 l-7 -11 11 7 c12 7 16 16 8 16 -3 0 -8 -5 -12 -12z" />
    <path d="M8997 1913 l5 -13 -14 5 -15 6 0 -15 c0 -8 8 -17 18 -19 l18 -5 13
16 13 15 -13 4 c-6 3 -10 8 -8 12 3 4 -1 8 -8 8 l-14 0 5 -14z m23 -17 c0 -3
-5 -8 -12 -12 l-11 -7 7 11 c7 12 16 16 16 8z" />
    <path d="M9359 1903 l-24 -13 46 0 c25 0 50 -5 56 -11 l10 -10 26 7 c15 3 24
10 21 15 -3 5 2 9 10 9 9 0 16 -4 16 -10 0 -15 29 -12 46 5 l15 15 -13 1 c-7
1 -52 2 -99 3 l-85 1 -25 -12z m111 -17 l-10 -10 -11 11 -12 12 21 -2 22 -1
-10 -10z" />
    <path d="M9937 1893 c-4 -3 -7 -13 -7 -21 l0 -14 15 12 15 13 -6 -19 -7 -19
12 11 12 11 -7 16 c-6 18 -16 21 -27 10z" />
    <path d="M8942 1878 c-7 -7 -12 -17 -12 -24 0 -6 -6 -14 -14 -17 l-14 -6 5
-21 6 -21 18 17 18 16 -6 15 -6 16 29 -7 c16 -4 24 -3 18 1 -6 4 -15 16 -20
26 l-10 17 -12 -12z" />
    <path d="M9333 1861 c-12 -12 -33 -21 -46 -21 -24 0 -55 -25 -44 -36 10 -10
28 7 21 18 l-7 11 16 -6 c20 -8 73 7 70 21 -3 15 25 23 33 10 l7 -11 -14 8
-14 8 11 -12 10 -11 32 6 c32 7 36 23 4 23 -9 -1 -26 2 -37 6 l-20 6 -22 -20z" />
    <path d="M9530 1860 c0 -5 9 -10 20 -10 11 0 20 5 20 10 0 6 -9 10 -20 10 -11
0 -20 -4 -20 -10z" />
    <path d="M9898 1842 l-37 -3 6 -16 6 -16 -11 7 -12 7 0 -15 0 -16 23 0 24 0
23 25 c13 14 22 26 19 27 -2 2 -21 2 -41 0z m-1 -27 c0 -8 -4 -12 -9 -9 -5 3
-6 10 -3 15 9 13 12 11 12 -6z" />
    <path d="M9193 1824 c-7 -6 -9 -15 -5 -20 4 -4 -1 -4 -11 -1 l-18 7 6 -19 6
-19 -12 -8 -12 -7 7 11 7 12 -15 -6 c-8 -3 -16 -15 -18 -27 l-3 -22 -18 1 c-9
1 -17 -2 -17 -7 0 -5 -5 -9 -10 -9 -6 0 -10 6 -8 13 2 6 -2 13 -7 15 -17 4
-11 -22 9 -45 21 -25 41 -31 33 -10 -2 6 2 18 9 25 8 7 14 10 14 6 0 -4 11 3
25 16 14 13 23 26 20 28 -9 9 26 41 39 36 16 -6 17 18 1 32 l-11 11 -11 -13z" />
    <path d="M9610 1830 c20 -13 33 -13 25 0 -3 6 -14 10 -23 10 l-17 0 15 -10z" />
    <path d="M9739 1831 c-1 -3 -1 -9 0 -13 0 -4 -6 -5 -14 -2 l-15 6 0 -20 c0
-11 7 -23 16 -26 l15 -6 -6 10 -6 10 15 -6 15 -6 -6 -14 -5 -14 17 0 16 0 -7
12 c-4 7 -7 26 -6 43 l2 32 -15 0 c-8 0 -16 -3 -16 -6z" />
    <path d="M10576 1832 c-3 -4 -4 -22 -4 -38 l1 -31 11 0 c13 0 14 36 2 55 l-7
12 17 -7 17 -6 -7 11 c-8 14 -23 16 -30 4z" />
    <path d="M10620 1836 c0 -2 7 -6 15 -10 8 -3 15 -1 15 4 0 6 -7 10 -15 10 -8
0 -15 -2 -15 -4z" />
    <path d="M12109 1838 c-5 -9 -5 -77 0 -74 3 2 4 -222 1 -497 -3 -276 -2 -506
2 -511 4 -5 10 -7 13 -5 2 3 6 249 7 547 l3 542 -12 0 c-7 0 -14 -1 -14 -2z" />
    <path d="M9670 1826 c0 -2 7 -6 15 -10 8 -3 15 -1 15 4 0 6 -7 10 -15 10 -8 0
-15 -2 -15 -4z" />
    <path d="M8870 1785 c0 -8 2 -15 4 -15 2 0 13 -3 23 -7 l18 -7 -12 16 c-7 8
-10 18 -6 21 3 4 -1 7 -10 7 -9 0 -17 -7 -17 -15z" />
    <path d="M8950 1785 c-7 -8 -16 -12 -21 -9 -5 3 -9 0 -9 -5 0 -6 4 -11 9 -11
10 0 41 28 41 36 0 8 -8 4 -20 -11z" />
    <path d="M9830 1760 l-25 -6 19 -7 19 -8 11 11 c14 14 5 18 -24 10z" />
    <path d="M8860 1750 c0 -6 -9 -19 -20 -30 l-20 -20 0 -30 c0 -16 3 -30 6 -30
4 0 13 8 21 18 8 9 12 12 9 5 l-6 -11 20 5 20 5 -2 44 -1 43 -14 5 c-7 3 -13
1 -13 -4z m-10 -50 c-6 -11 -13 -20 -16 -20 -2 0 0 9 6 20 6 11 13 20 16 20 2
0 0 -9 -6 -20z m30 -16 l0 -15 -10 6 c-5 3 -10 10 -10 16 0 5 5 9 10 9 6 0 10
-7 10 -16z" />
    <path d="M8880 1640 c0 -7 3 -10 7 -7 3 4 3 10 0 14 -4 3 -7 0 -7 -7z" />
    <path d="M8798 1628 c-4 -39 -3 -66 4 -62 5 3 6 16 4 30 -3 13 0 24 5 24 5 0
9 5 9 10 0 15 -20 12 -22 -2z" />
    <path d="M9064 1626 l-19 -15 12 -11 11 -12 12 22 c6 12 10 24 8 26 -3 2 -13
-3 -24 -10z" />
    <path d="M8830 1621 c0 -11 39 -25 47 -18 3 3 2 11 -2 17 l-7 12 -9 -13 -9
-14 0 13 c0 6 -4 12 -10 12 -5 0 -10 -4 -10 -9z" />
    <path d="M8785 1507 l4 -47 -10 0 c-5 0 -9 -4 -9 -10 0 -5 9 -10 20 -10 l19 0
-3 46 c-2 25 -9 51 -14 56 l-11 11 4 -46z" />
    <path d="M9026 1521 c-3 -5 1 -14 9 -21 l15 -12 0 21 c0 21 -14 28 -24 12z" />
    <path d="M8996 1509 c3 -6 1 -15 -7 -19 l-13 -9 -2 -66 -2 -65 13 10 12 10 -7
43 c-5 23 -6 44 -4 46 2 2 4 0 4 -6 0 -6 9 -13 20 -16 21 -5 27 7 9 18 -6 4
-8 13 -5 21 7 17 -3 44 -16 44 -5 0 -6 -5 -2 -11z" />
    <path d="M10573 1500 l1 -18 19 9 18 10 17 -18 17 -18 328 0 327 0 0 10 0 10
-330 -3 -330 -3 0 16 c0 8 -8 15 -17 16 -10 0 -26 2 -35 4 l-17 3 2 -18z" />
    <path d="M10570 1460 c0 -5 14 -10 31 -10 l30 0 -6 10 c-3 6 -17 10 -31 10
-13 0 -24 -4 -24 -10z" />
    <path d="M9000 1420 c0 -7 3 -10 7 -7 3 4 3 10 0 14 -4 3 -7 0 -7 -7z" />
    <path d="M8770 1349 c0 -15 26 -39 34 -32 3 4 6 15 6 25 l0 18 -20 0 c-11 0
-20 -5 -20 -11z" />
    <path d="M9001 1335 l-1 -30 -10 15 -10 15 0 -27 0 -28 25 0 25 0 0 13 c0 7
-4 17 -9 23 -5 5 -11 18 -14 29 l-5 20 -1 -30z" />
    <path d="M9440 1345 l0 -10 136 3 137 3 -6 -20 -5 -21 15 0 15 0 -5 14 -6 14
26 7 c53 13 7 19 -147 20 l-160 0 0 -10z" />
    <path d="M10585 1350 l-6 -10 16 0 16 0 -6 10 c-3 6 -8 10 -10 10 -2 0 -7 -4
-10 -10z" />
    <path d="M10648 1346 l5 -9 -17 6 -18 7 5 -14 6 -15 -15 6 c-15 6 -18 -6 -6
-22 l7 -10 343 0 342 0 0 10 0 10 -325 -3 -325 -3 0 11 0 10 325 0 325 0 0 13
0 12 -329 0 -329 0 6 -9z" />
    <path d="M9020 1340 c0 -7 3 -10 7 -7 3 4 3 10 0 14 -4 3 -7 0 -7 -7z" />
    <path d="M10573 1305 c0 -36 12 -39 15 -4 1 16 -2 29 -7 29 -4 0 -8 -11 -8
-25z" />
    <path d="M9745 1311 c-7 -12 2 -31 15 -31 9 0 8 26 -2 35 -3 4 -9 2 -13 -4z" />
    <path d="M8770 1299 c0 -8 7 -22 14 -32 l14 -18 7 10 c3 6 -3 21 -14 33 l-21
22 0 -15z" />
    <path d="M9053 1229 c1 -15 9 -35 17 -45 l15 -19 -16 13 -17 13 0 -36 0 -35 9
6 c5 3 9 -3 9 -14 0 -10 8 -27 19 -36 l19 -17 5 15 6 15 -13 -5 c-17 -6 -21 1
-31 45 l-7 34 10 -7 10 -6 -3 17 c-2 10 -4 25 -4 34 -1 8 -8 24 -16 35 l-15
19 3 -26z" />
    <path d="M8790 1204 l0 -15 10 6 c6 4 8 11 5 16 -9 14 -15 11 -15 -7z" />
    <path d="M8872 1180 c4 -14 -13 -40 -26 -40 -3 0 -6 10 -6 22 l0 22 -16 -16
-17 -16 29 -61 c16 -34 34 -61 40 -61 l11 0 -5 30 c-2 16 -7 28 -11 26 -4 -3
-7 5 -8 17 0 12 1 16 4 10 3 -7 9 -13 14 -13 11 0 7 76 -5 87 l-9 8 5 -15z
m-25 -67 c-4 -3 -7 0 -7 7 0 7 3 10 7 7 3 -4 3 -10 0 -14z" />
    <path d="M9096 1133 c-11 -11 -7 -20 9 -20 8 0 15 4 15 8 0 11 -16 20 -24 12z" />
    <path d="M9749 1118 c-7 -21 -3 -67 7 -82 l13 -19 -2 52 c-1 28 -5 51 -9 51
-5 0 -8 -1 -9 -2z" />
    <path d="M9132 1078 l-12 -12 11 -13 c7 -7 16 -13 21 -13 l9 0 -7 13 -8 12 17
-14 c23 -18 22 2 -1 22 l-18 17 -12 -12z" />
    <path d="M9057 1049 c7 -7 15 -10 18 -7 3 3 -2 9 -12 12 l-18 7 12 -12z" />
    <path d="M10000 1040 l-15 -10 13 0 c6 0 12 -5 12 -11 l0 -11 -25 16 -25 16 0
-10 c0 -5 5 -10 10 -10 l10 0 -6 -27 c-4 -16 -11 -30 -16 -31 -4 -2 -6 -9 -2
-15 3 -7 -1 -4 -8 5 l-14 17 -15 -10 -14 -9 13 0 c7 0 11 -3 9 -7 -3 -5 8 -9
23 -10 l28 -2 6 15 c3 9 4 19 1 24 -3 4 3 14 13 21 l17 14 -14 -20 -15 -20 18
16 18 16 -4 26 -3 26 -15 -9z" />
    <path d="M8917 1033 c-10 -10 -8 -25 2 -19 5 4 11 1 13 -6 l4 -12 13 8 12 8
-12 14 c-13 15 -22 18 -32 7z" />
    <path d="M9158 1008 c2 -10 13 -23 23 -29 l19 -10 0 16 c0 8 4 15 9 15 6 0 8
-8 6 -18 l-3 -17 45 -1 44 -2 -4 12 c-2 6 -10 11 -18 12 -26 2 -49 16 -49 30
0 8 -7 14 -16 14 -8 0 -13 -3 -11 -7 3 -5 -1 -14 -9 -20 l-13 -13 -6 10 c-3 6
-4 14 -1 18 3 5 -1 9 -8 9 l-13 0 5 -19z m87 -28 l6 -10 -15 6 c-18 7 -21 14
-7 14 6 0 13 -4 16 -10z" />
    <path d="M9715 1021 c-3 -6 -11 -9 -16 -6 -5 4 -9 2 -9 -4 0 -9 31 -31 44 -31
5 0 -1 40 -8 47 -2 2 -7 -1 -11 -6z" />
    <path d="M9930 1010 c0 -7 3 -10 7 -7 3 4 3 10 0 14 -4 3 -7 0 -7 -7z" />
    <path d="M8900 985 c0 -8 6 -15 13 -15 8 0 14 7 14 15 0 8 -6 15 -14 15 -7 0
-13 -7 -13 -15z" />
    <path d="M8946 993 c-3 -3 -1 -12 5 -19 l10 -12 -11 -7 c-5 -3 -10 -10 -10
-15 0 -12 28 -6 43 10 l12 13 -12 -7 -13 -7 0 20 c0 21 -13 35 -24 24z" />
    <path d="M9605 980 l-6 -10 15 0 c9 0 16 5 16 10 0 6 -4 10 -9 10 -6 0 -13 -4
-16 -10z" />
    <path d="M9134 968 l-7 -11 11 7 c12 7 16 16 8 16 -3 0 -8 -5 -12 -12z" />
    <path d="M9318 968 l12 -12 12 12 12 12 -24 0 -24 0 12 -12z" />
    <path d="M9686 968 c3 -5 10 -6 15 -3 13 9 11 12 -6 12 -8 0 -12 -4 -9 -9z" />
    <path d="M9740 970 l-15 -10 12 0 c6 0 15 5 18 10 8 12 4 12 -15 0z" />
    <path d="M9020 953 c0 -6 8 -17 18 -24 l17 -14 -15 20 c-8 11 -16 22 -17 24
-2 2 -3 0 -3 -6z" />
    <path d="M9854 945 c-4 -8 -4 -28 -2 -45 2 -16 2 -28 -1 -27 -3 1 -8 -2 -11
-7 -3 -5 3 -10 13 -12 l17 -2 -4 49 -5 49 10 0 c6 0 7 -4 4 -10 -3 -5 -1 -10
4 -10 l11 0 -5 -36 -4 -35 12 4 c7 2 11 10 10 16 -2 6 2 11 7 11 16 0 11 27
-6 34 l-16 6 6 15 5 15 -20 0 c-11 0 -22 -7 -25 -15z" />
    <path d="M8984 928 l-8 -12 12 -4 c7 -2 10 -8 6 -13 -3 -5 0 -8 8 -7 7 2 12
-2 11 -8 -1 -7 6 -19 16 -28 l19 -17 26 7 c14 3 24 9 21 13 -2 4 3 8 11 8 l15
0 -6 -14 c-3 -7 -8 -20 -11 -28 l-6 -15 14 0 14 0 1 36 1 35 -31 -1 c-49 -3
-59 -1 -52 10 l6 10 -15 -6 -15 -6 -7 26 c-7 28 -18 33 -30 14z m61 -68 c3 -5
4 -10 1 -10 -3 0 -8 5 -11 10 -3 6 -4 10 -1 10 3 0 8 -4 11 -10z" />
    <path d="M9770 873 c0 -5 7 -17 15 -27 17 -23 20 -40 5 -31 -6 3 -18 -1 -27
-11 l-17 -16 -58 6 -59 6 7 -12 7 -11 -14 9 c-8 4 -19 9 -26 10 l-12 2 14 -22
c8 -13 12 -26 8 -29 -3 -4 4 -7 17 -7 l22 0 -13 17 -14 17 14 -8 13 -9 10 14
10 14 -6 -19 -6 -18 27 6 c39 10 143 59 143 68 0 5 -5 8 -11 8 l-11 0 6 15 5
15 -22 0 -22 0 15 10 15 10 -17 0 c-10 0 -18 -3 -18 -7z" />
    <path d="M10575 802 c-11 -11 -4 -22 15 -22 l20 0 0 13 c0 13 -25 19 -35 9z" />
    <path d="M9165 791 l-5 -10 20 2 c11 1 20 5 20 9 0 11 -28 10 -35 -1z" />
    <path d="M9234 788 c-3 -4 3 -5 13 -1 l18 7 -15 -20 -15 -19 18 14 c9 8 21 11
24 7 4 -4 2 -11 -6 -15 l-13 -8 15 -6 c8 -3 36 -9 62 -13 l48 -7 -5 14 c-5 14
-10 16 -61 18 l-28 1 6 10 c3 6 0 10 -7 10 l-13 0 13 8 13 9 -31 0 c-17 0 -33
-4 -36 -9z" />
    <path d="M9316 791 l-7 -10 25 -7 c14 -3 30 -3 37 2 l12 7 -6 -9 -6 -10 88 1
c48 1 94 5 101 10 l14 8 -20 7 c-23 8 -56 1 -48 -11 l5 -9 -33 1 -33 0 20 9
20 9 -45 0 c-25 1 -61 4 -81 7 l-36 6 -7 -11z" />
    <path d="M10337 793 c-12 -11 -8 -35 6 -30 6 2 20 0 29 -4 19 -10 51 -1 42 12
-3 5 -16 9 -30 9 l-25 0 6 10 c7 11 -18 14 -28 3z" />
    <path d="M13360 781 c0 -11 5 -23 10 -26 l10 -6 0 25 c0 14 -4 26 -10 26 -5 0
-10 -9 -10 -19z" />
    <path d="M9558 763 c-14 -2 -29 -11 -32 -19 l-5 -14 14 0 c8 0 15 5 15 10 0 6
5 10 11 10 5 0 7 -4 4 -10 l-6 -10 18 0 19 0 0 20 c0 11 -3 19 -6 19 -3 -1
-17 -4 -32 -6z" />
    <path d="M10575 760 c3 -5 11 -10 16 -10 6 0 7 5 4 10 -3 6 -11 10 -16 10 -6
0 -7 -4 -4 -10z" />
    <path d="M9400 746 c0 -9 40 -13 46 -5 3 5 -6 9 -20 9 -14 0 -26 -2 -26 -4z" />
    <path d="M9467 744 c-8 -9 1 -24 14 -24 6 0 8 4 4 9 -3 5 3 12 12 14 l18 5
-21 1 c-11 0 -24 -2 -27 -5z" />
  </g>
  <g transform="translate(0.000000,280.000000) scale(0.100000,-0.100000)" fill="#f5fdfd" stroke="none">
    <path d="M9291 2051 l-21 -29 12 2 c13 3 46 15 59 22 4 2 10 -3 13 -12 l6 -15
-9 6 c-5 3 -12 1 -16 -5 -3 -5 -1 -10 4 -10 6 0 14 0 19 0 4 0 7 11 7 24 l1
24 -24 -4 -24 -5 5 16 c10 25 -10 17 -32 -14z" />
    <path d="M9562 2069 c2 -7 17 -14 32 -16 l28 -4 -4 13 c-3 7 -17 14 -32 16
l-28 4 4 -13z" />
    <path d="M9636 2056 c7 -19 38 -22 32 -3 -3 6 -12 13 -21 15 l-17 3 6 -15z" />
    <path d="M9222 2048 c6 -18 25 -21 25 -3 0 8 -7 15 -14 15 -8 0 -13 -5 -11
-12z" />
    <path d="M10330 2024 l0 -35 11 6 c6 4 8 13 6 19 l-5 13 16 1 c59 3 926 1 932
-3 4 -3 10 4 13 15 l5 20 -15 0 -14 0 6 -10 7 -11 -466 1 -466 1 0 10 c0 5 -7
9 -15 9 l-15 0 0 -36z" />
    <path d="M11500 2051 c0 -5 6 -12 13 -17 l12 -9 475 5 475 5 2 13 c3 14 -23
16 -32 2 l-6 -9 -451 -1 c-248 0 -455 -3 -461 -7 l-10 -6 6 16 6 17 -14 0 c-8
0 -15 -4 -15 -9z" />
    <path d="M13340 2046 l0 -14 20 5 c31 8 34 23 6 23 l-26 0 0 -14z" />
    <path d="M9533 2043 c4 -3 10 -3 14 0 3 4 0 7 -7 7 -7 0 -10 -3 -7 -7z" />
    <path d="M9695 2039 c-11 -17 1 -21 15 -4 l12 15 -10 0 c-6 0 -14 -5 -17 -11z" />
    <path d="M14593 2042 l-12 -8 8 -13 8 -13 6 21 c3 12 4 21 4 21 -1 0 -7 -4
-14 -8z" />
    <path d="M9167 2033 c-13 -12 -7 -18 18 -19 l24 -2 -14 14 c-15 16 -19 17 -28
7z" />
    <path d="M9736 2025 c4 -8 10 -12 15 -9 11 6 2 24 -11 24 -5 0 -7 -7 -4 -15z" />
    <path d="M11318 2033 c6 -2 18 -2 25 0 6 3 1 5 -13 5 -14 0 -19 -2 -12 -5z" />
    <path d="M14632 2031 l-14 -8 16 -6 16 -6 0 14 c0 17 -1 17 -18 6z" />
    <path d="M9116 2011 c-4 -5 -2 -20 4 -33 l10 -23 -2 20 c-2 11 1 26 5 33 l8
12 -10 0 c-5 0 -12 -4 -15 -9z" />
    <path d="M9245 2010 l-6 -10 20 0 c25 0 27 6 6 13 -8 4 -17 2 -20 -3z" />
    <path d="M10365 2010 c-3 -5 1 -10 9 -10 8 0 18 5 21 10 3 6 -1 10 -9 10 -8 0
-18 -4 -21 -10z" />
    <path d="M11305 2010 c-3 -5 -1 -10 4 -10 6 0 11 5 11 10 0 6 -2 10 -4 10 -3
0 -8 -4 -11 -10z" />
    <path d="M12420 2010 c0 -5 5 -10 11 -10 5 0 7 5 4 10 -3 6 -8 10 -11 10 -2 0
-4 -4 -4 -10z" />
    <path d="M12450 2009 c0 -5 5 -7 10 -4 6 3 10 8 10 11 0 2 -4 4 -10 4 -5 0
-10 -5 -10 -11z" />
    <path d="M9810 1992 c0 -4 14 -13 30 -20 17 -8 28 -18 24 -23 -3 -5 -1 -9 5
-9 25 0 18 20 -15 39 -39 23 -44 25 -44 13z" />
    <path d="M9063 1983 c-7 -2 -13 -11 -13 -19 l0 -14 20 12 c31 20 26 35 -7 21z" />
    <path d="M9087 1963 c-12 -11 -7 -19 12 -19 l19 0 -5 13 c-6 14 -16 17 -26 6z" />
    <path d="M9805 1951 c-7 -12 12 -24 25 -16 11 7 4 25 -10 25 -5 0 -11 -4 -15
-9z m22 -8 c-4 -3 -10 -3 -14 0 -3 4 0 7 7 7 7 0 10 -3 7 -7z" />
    <path d="M9005 1941 c-6 -11 9 -23 19 -14 9 9 7 23 -3 23 -6 0 -12 -4 -16 -9z" />
    <path d="M9774 1928 l-7 -11 11 7 c12 7 16 16 8 16 -3 0 -8 -5 -12 -12z" />
    <path d="M8976 1911 c-3 -5 1 -11 9 -14 l14 -6 -6 15 c-6 16 -10 17 -17 5z" />
    <path d="M9433 1913 c4 -3 10 -3 14 0 3 4 0 7 -7 7 -7 0 -10 -3 -7 -7z" />
    <path d="M9920 1910 c0 -5 5 -10 10 -10 6 0 9 -6 8 -12 -2 -7 3 -12 11 -10
l13 3 -5 -15 -6 -15 14 6 15 5 -7 12 c-20 36 -53 59 -53 36z" />
    <path d="M9012 1890 c-7 -11 -21 -20 -32 -20 -11 0 -20 -4 -20 -9 l0 -10 31 9
c18 5 35 7 39 5 4 -2 5 7 2 20 -2 14 -5 25 -6 25 -1 0 -7 -9 -14 -20z" />
    <path d="M9390 1899 c-14 -4 -20 -8 -15 -9 6 -1 17 -3 26 -5 9 -1 22 1 28 5
l13 7 -14 5 c-7 3 -24 1 -38 -3z" />
    <path d="M9460 1900 c0 -7 3 -10 7 -7 3 4 3 10 0 14 -4 3 -7 0 -7 -7z" />
    <path d="M9485 1890 c3 -5 8 -10 11 -10 3 0 2 5 -1 10 -3 6 -8 10 -11 10 -3 0
-2 -4 1 -10z" />
    <path d="M9520 1890 c0 -5 5 -10 11 -10 5 0 7 5 4 10 -3 6 -8 10 -11 10 -2 0
-4 -4 -4 -10z" />
    <path d="M9350 1870 c-8 -5 -11 -10 -6 -10 5 0 3 -6 -3 -14 l-11 -13 25 5 25
4 -10 13 c-5 6 -7 15 -3 18 9 10 0 8 -17 -3z" />
    <path d="M9463 1866 l0 -13 64 -10 63 -9 -13 13 c-8 8 -32 16 -55 18 -23 2
-46 6 -50 9 -5 3 -9 -1 -9 -8z" />
    <path d="M8923 1858 c-6 -7 -13 -19 -18 -26 l-7 -14 20 11 c21 11 38 41 23 41
-5 0 -13 -6 -18 -12z" />
    <path d="M9396 1851 l-6 -9 20 5 c23 6 26 13 6 13 -8 0 -17 -4 -20 -9z" />
    <path d="M11500 1835 c0 -8 7 -15 16 -15 l16 0 -12 15 c-7 8 -14 15 -16 15 -2
0 -4 -7 -4 -15z" />
    <path d="M9135 1830 c3 -5 8 -10 11 -10 3 0 2 5 -1 10 -3 6 -8 10 -11 10 -3 0
-2 -4 1 -10z" />
    <path d="M9727 1829 c-9 -6 -22 -7 -27 -4 -6 3 -10 1 -10 -4 0 -6 5 -11 11
-11 5 0 7 -4 4 -10 -11 -17 4 -11 26 11 24 24 22 32 -4 18z" />
    <path d="M9858 1833 c7 -3 16 -2 19 1 4 3 -2 6 -13 5 l-19 -1 13 -5z" />
    <path d="M9902 1826 c7 -8 16 -12 21 -9 11 7 -2 23 -19 23 l-15 0 13 -14z" />
    <path d="M10570 1829 c0 -5 5 -7 10 -4 6 3 10 8 10 11 0 2 -4 4 -10 4 -5 0
-10 -5 -10 -11z" />
    <path d="M10604 1825 c-4 -8 -12 -15 -20 -15 -8 0 -14 -4 -14 -9 0 -19 37 -6
47 16 l11 23 -9 0 c-5 0 -12 -7 -15 -15z" />
    <path d="M11335 1830 c3 -5 8 -10 11 -10 2 0 4 5 4 10 0 6 -5 10 -11 10 -5 0
-7 -4 -4 -10z" />
    <path d="M12144 1828 l-7 -11 11 7 c12 7 16 16 8 16 -3 0 -8 -5 -12 -12z" />
    <path d="M12445 1830 c3 -5 8 -10 11 -10 3 0 2 5 -1 10 -3 6 -8 10 -11 10 -3
0 -2 -4 1 -10z" />
    <path d="M8936 1821 c-4 -5 1 -8 9 -7 21 3 31 16 12 16 -9 0 -18 -4 -21 -9z" />
    <path d="M9177 1819 c7 -7 15 -10 18 -7 3 3 -2 9 -12 12 l-18 7 12 -12z" />
    <path d="M9635 1820 c3 -5 11 -10 16 -10 6 0 7 5 4 10 -3 6 -11 10 -16 10 -6
0 -7 -4 -4 -10z" />
    <path d="M12100 1817 c0 -8 7 -14 15 -14 8 0 15 6 15 14 0 7 -7 13 -15 13 -8
0 -15 -6 -15 -13z" />
    <path d="M9753 1813 c-18 -7 -16 -20 2 -20 8 0 15 6 15 14 0 7 -1 13 -2 12 -2
0 -9 -3 -15 -6z" />
    <path d="M9854 1788 l0 -28 10 4 c6 2 10 9 9 15 -2 6 1 11 7 11 5 0 7 6 4 13
-3 8 -11 14 -18 14 l-12 0 0 -29z" />
    <path d="M9160 1799 c0 -5 -4 -8 -9 -4 -5 3 -12 1 -15 -4 -4 -5 2 -8 11 -7 15
3 33 26 19 26 -3 0 -6 -5 -6 -11z" />
    <path d="M8906 1792 c-4 -7 -4 -12 1 -13 4 0 16 -2 26 -4 l17 -3 -6 9 c-3 5
-9 7 -14 4 -4 -3 -10 0 -12 7 l-4 12 -8 -12z" />
    <path d="M9193 1783 c0 -17 7 -16 31 2 l20 15 -25 -2 -26 -2 0 -13z" />
    <path d="M8865 1779 c-10 -15 3 -25 16 -12 l11 11 -10 6 c-6 3 -14 1 -17 -5z" />
    <path d="M10595 1770 c-4 -6 -12 -7 -18 -4 l-12 7 8 -8 c13 -15 37 -14 37 1 0
16 -6 18 -15 4z" />
    <path d="M9100 1744 c-34 -12 -32 -16 10 -16 35 0 41 2 36 11 -4 5 0 12 6 14
l13 5 -15 0 c-8 0 -31 -6 -50 -14z" />
    <path d="M9782 1733 l27 -27 20 18 c11 10 18 23 14 29 l-6 10 -9 -17 -9 -16
-22 15 c-35 24 -44 17 -15 -12z" />
    <path d="M8846 1743 c-11 -11 -6 -23 10 -23 8 0 13 -4 10 -9 -3 -5 0 -11 7
-14 l12 -4 1 26 1 27 -18 1 c-9 1 -20 -1 -23 -4z" />
    <path d="M9099 1705 c-1 -3 -2 -8 -3 -12 -3 -18 -19 -34 -30 -30 l-11 4 0 -53
c-1 -30 1 -54 2 -54 2 0 8 12 13 26 l10 26 -12 16 -13 16 17 -7 17 -6 -5 13
-5 13 25 17 c29 18 34 36 11 36 -8 0 -16 -2 -16 -5z" />
    <path d="M8815 1677 l-8 -18 11 -11 c14 -14 21 3 12 27 l-8 20 -7 -18z" />
    <path d="M8855 1660 c2 -39 11 -47 17 -15 l5 25 -12 10 -12 10 2 -30z" />
    <path d="M8835 1620 c-3 -5 -1 -10 4 -10 6 0 11 5 11 10 0 6 -2 10 -4 10 -3 0
-8 -4 -11 -10z" />
    <path d="M9024 1518 l-7 -11 11 7 c12 7 16 16 8 16 -3 0 -8 -5 -12 -12z" />
    <path d="M10591 1515 c8 -7 24 -16 35 -19 l22 -7 6 16 5 15 -22 1 c-12 0 -31
2 -41 4 l-19 4 14 -14z" />
    <path d="M8970 1510 c0 -7 3 -10 7 -7 3 4 3 10 0 14 -4 3 -7 0 -7 -7z" />
    <path d="M9011 1495 c0 -5 6 -18 13 -28 l14 -18 6 18 c4 10 4 14 0 10 -4 -4
-13 1 -20 11 -7 9 -13 13 -13 7z" />
    <path d="M8990 1464 c0 -14 4 -23 9 -20 5 3 7 15 4 26 -7 28 -13 25 -13 -6z" />
    <path d="M8802 1460 c0 -14 2 -19 5 -12 2 6 2 18 0 25 -3 6 -5 1 -5 -13z" />
    <path d="M10635 1470 c3 -5 8 -10 11 -10 2 0 4 5 4 10 0 6 -5 10 -11 10 -5 0
-7 -4 -4 -10z" />
    <path d="M8770 1449 c0 -5 5 -7 10 -4 6 3 10 8 10 11 0 2 -4 4 -10 4 -5 0 -10
-5 -10 -11z" />
    <path d="M8970 1358 c0 -9 5 -20 10 -23 13 -8 13 5 0 25 l-10 15 0 -17z" />
    <path d="M9694 1348 c-5 -8 26 -12 55 -9 l13 2 -4 -13 c-3 -7 -17 -14 -32 -15
-37 -3 -47 -13 -13 -13 15 0 27 -4 27 -10 0 -5 5 -10 11 -10 l11 0 -5 15 c-4
8 -2 17 3 20 6 4 10 12 10 19 l0 14 -36 4 c-19 2 -37 0 -40 -4z" />
    <path d="M10570 1349 c0 -5 9 -9 20 -9 11 0 20 2 20 4 0 2 -9 6 -20 9 -11 3
-20 1 -20 -4z" />
    <path d="M8770 1335 c0 -6 7 -12 15 -12 8 0 15 6 15 12 0 6 -7 12 -15 12 -8 0
-15 -6 -15 -12z" />
    <path d="M10970 1340 l-325 -5 -25 -12 c-14 -6 -20 -12 -13 -12 6 -1 18 -4 27
-7 l16 -6 0 16 0 17 325 -3 325 -3 0 13 c0 6 -1 11 -2 10 -2 -1 -149 -5 -328
-8z" />
    <path d="M8991 1294 l1 -19 5 13 c3 7 2 16 -1 19 -3 4 -6 -2 -5 -13z" />
    <path d="M9020 1293 c0 -9 3 -13 7 -10 3 4 13 1 21 -6 l15 -12 -12 23 c-14 26
-31 29 -31 5z" />
    <path d="M10583 1286 c0 -7 6 -13 14 -13 7 0 13 4 13 8 0 4 -6 9 -13 12 l-14
5 0 -12z" />
    <path d="M8780 1240 c0 -13 18 -22 24 -11 3 5 -1 11 -9 15 -8 3 -15 1 -15 -4z" />
    <path d="M9054 1208 l-7 -11 11 7 c12 7 16 16 8 16 -3 0 -8 -5 -12 -12z" />
    <path d="M8817 1193 c-11 -11 -8 -20 8 -20 8 0 15 4 15 9 0 4 4 8 10 8 5 0 7
-6 4 -14 -3 -8 -1 -17 5 -21 l11 -6 -7 17 -6 17 11 -7 12 -7 0 13 0 14 -28 2
c-16 1 -32 -1 -35 -5z" />
    <path d="M9063 1184 l-13 -13 10 -6 c6 -3 10 -1 10 5 0 6 5 8 10 5 6 -3 10 -2
10 4 0 17 -14 20 -27 5z" />
    <path d="M8810 1144 l0 -16 15 6 14 5 10 -17 10 -17 1 13 c0 15 -20 36 -38 40
-6 1 -12 -5 -12 -14z" />
    <path d="M9050 1139 c0 -5 5 -7 10 -4 6 3 10 8 10 11 0 2 -4 4 -10 4 -5 0 -10
-5 -10 -11z" />
    <path d="M8876 1125 c-3 -8 -1 -15 4 -15 6 0 10 7 10 15 0 8 -2 15 -4 15 -2 0
-6 -7 -10 -15z" />
    <path d="M9092 1118 c14 -21 48 -34 48 -18 0 11 -29 34 -47 36 l-14 2 13 -20z
m15 -5 c-4 -3 -7 0 -7 7 0 7 3 10 7 7 3 -4 3 -10 0 -14z" />
    <path d="M9751 1111 c-7 -5 -11 -15 -9 -22 3 -8 0 -21 -8 -29 l-12 -15 15 -20
15 -20 -7 22 -6 23 13 -3 c7 -2 10 -2 5 0 -4 3 -4 10 0 16 4 6 7 21 8 34 0 13
1 23 0 23 0 0 -6 -4 -14 -9z" />
    <path d="M8855 1070 c-8 -13 14 -52 25 -45 5 3 10 -5 12 -17 l3 -23 19 3 18 3
-6 -10 -7 -10 33 -16 33 -16 -17 14 c-10 8 -15 17 -12 20 3 3 -4 10 -15 17
-12 6 -21 18 -21 26 l0 16 17 -6 17 -7 -8 8 c-4 4 -15 8 -24 9 -10 1 -25 2
-36 3 l-18 1 5 20 c5 21 -7 28 -18 10z" />
    <path d="M9147 1066 l-6 -15 14 6 c8 3 12 9 9 14 -7 12 -11 11 -17 -5z" />
    <path d="M9096 1061 c-3 -5 1 -11 9 -14 l14 -6 -6 15 c-6 16 -10 17 -17 5z" />
    <path d="M9175 1040 c-4 -6 -1 -17 5 -25 14 -17 35 -21 25 -5 -3 6 -1 10 4 10
6 0 11 -5 11 -11 l0 -10 11 7 12 7 -24 18 c-28 21 -35 23 -44 9z" />
    <path d="M9686 1015 l-15 -16 6 -15 6 -16 -24 11 -24 12 19 -15 c21 -17 40
-11 32 10 -3 8 -1 14 3 14 5 0 11 7 15 15 7 19 1 19 -18 0z" />
    <path d="M9956 1014 c-3 -9 -6 -27 -6 -40 l0 -25 -12 7 -13 7 8 -8 c11 -13 51
-14 59 -1 12 18 9 31 -4 18 -20 -20 -30 -14 -26 16 l3 27 20 -3 20 -3 -15 10
c-21 15 -27 14 -34 -5z" />
    <path d="M9254 987 l-6 -16 -16 6 -17 6 11 -12 11 -12 16 7 c9 3 14 11 11 18
-3 6 1 3 9 -7 l15 -18 6 10 c4 6 14 7 24 4 l17 -6 -10 11 c-5 6 -22 14 -37 17
l-28 7 -6 -15z" />
    <path d="M9712 983 c-6 -2 -9 -9 -6 -15 l7 -10 8 13 8 14 23 -14 23 -14 -14
16 c-14 17 -26 20 -49 10z" />
    <path d="M9565 970 c-3 -5 -2 -10 4 -10 5 0 13 5 16 10 3 6 2 10 -4 10 -5 0
-13 -4 -16 -10z" />
    <path d="M8995 940 c-3 -5 -1 -10 4 -10 6 0 11 5 11 10 0 6 -2 10 -4 10 -3 0
-8 -4 -11 -10z" />
    <path d="M9870 932 c0 -5 7 -13 16 -16 l16 -6 -4 12 c-5 15 -28 23 -28 10z" />
    <path d="M9924 928 c9 -5 14 -14 11 -19 -4 -5 -10 -7 -15 -4 -5 3 -11 1 -14
-4 -4 -5 -2 -12 3 -16 10 -6 61 32 61 45 0 4 -14 7 -31 7 l-31 0 16 -9z" />
    <path d="M9014 905 l-6 -16 -14 12 -14 11 0 -10 c0 -15 28 -35 53 -36 12 0 23
-7 23 -13 3 -26 5 -28 14 -13 l10 15 0 -12 0 -12 14 5 c8 3 17 0 22 -7 l7 -12
-13 8 -13 8 5 -13 c6 -20 28 -24 28 -6 0 8 -10 25 -22 37 l-23 22 23 -6 22 -5
-6 9 c-7 12 -44 12 -44 0 0 -5 -13 -3 -30 5 -16 9 -30 20 -30 25 0 6 5 7 12 3
l11 -7 -7 11 c-10 16 -15 15 -22 -3z m11 -25 c3 -5 4 -10 1 -10 -3 0 -8 5 -11
10 -3 6 -4 10 -1 10 3 0 8 -4 11 -10z" />
    <path d="M9861 873 c0 -12 -6 -25 -13 -29 l-11 -7 7 14 c4 8 0 5 -9 -6 -9 -11
-22 -19 -29 -17 -7 1 -13 -5 -13 -13 0 -8 3 -15 7 -15 15 0 100 61 100 71 l0
11 -14 -11 -14 -12 -5 18 -5 18 -1 -22z" />
    <path d="M9770 819 l0 -20 10 6 c5 3 7 12 3 20 -7 21 -13 19 -13 -6z" />
    <path d="M10330 782 l0 -32 11 0 11 0 -6 18 -6 17 12 -15 13 -15 90 2 c50 2
102 4 117 6 15 2 25 0 22 -4 -2 -4 0 -10 6 -14 l10 -6 0 30 0 29 -16 -2 c-8
-1 -19 -7 -22 -13 l-7 -11 -88 -4 c-48 -2 -87 0 -87 5 0 4 -3 6 -7 6 -21 -3
-26 2 -13 12 l15 11 -16 -5 c-9 -3 -22 0 -28 6 l-11 11 0 -32z" />
    <path d="M9158 785 l22 -16 22 12 23 12 -13 -15 -13 -16 27 -6 c30 -8 46 0 20
10 -9 3 -14 10 -11 14 3 5 -4 12 -16 15 l-21 7 -7 -10 -7 -11 -14 9 c-25 16
-36 11 -12 -5z" />
    <path d="M9257 789 c7 -7 15 -10 18 -7 3 3 -2 9 -12 12 l-18 7 12 -12z" />
    <path d="M9296 788 c2 -4 0 -9 -6 -13 -5 -3 -10 -12 -10 -18 l0 -12 10 15 9
15 41 1 c22 0 40 -2 40 -6 0 -9 61 -3 71 7 l10 10 -31 -5 c-16 -2 -38 -1 -47
3 -23 10 -92 12 -87 3z" />
    <path d="M9519 783 l-14 -18 18 14 c16 13 21 21 13 21 -2 0 -10 -8 -17 -17z" />
    <path d="M9610 795 c-1 -5 -2 -13 -1 -17 0 -5 -5 -8 -13 -8 -8 0 -17 -4 -21
-9 l-5 -10 32 10 32 9 10 -10 c16 -16 30 -12 16 5 l-12 15 14 0 c8 0 19 -5 26
-12 l12 -12 0 18 0 19 -40 -6 -39 -5 -5 12 -4 11 -2 -10z" />
    <path d="M12111 791 l-14 -9 6 -16 c10 -25 27 -19 27 9 0 14 -1 25 -2 25 -2 0
-9 -4 -17 -9z m6 -28 c-4 -3 -7 0 -7 7 0 7 3 10 7 7 3 -4 3 -10 0 -14z" />
    <path d="M13340 775 l0 -26 21 11 c23 13 21 33 -4 38 l-17 3 0 -26z" />
    <path d="M14580 775 c0 -14 4 -25 10 -25 5 0 9 11 8 25 -1 14 -6 25 -10 25 -4
0 -8 -11 -8 -25z" />
    <path d="M14610 789 c0 -5 5 -7 10 -4 6 3 10 8 10 11 0 2 -4 4 -10 4 -5 0 -10
-5 -10 -11z" />
    <path d="M9735 780 c-3 -5 -2 -10 4 -10 5 0 13 5 16 10 3 6 2 10 -4 10 -5 0
-13 -4 -16 -10z" />
    <path d="M14626 758 c3 -4 9 -8 15 -8 5 0 9 4 9 8 0 5 -7 9 -15 9 -8 0 -12 -4
-9 -9z" />
    <path d="M9306 751 c-6 -9 15 -21 36 -21 l10 0 -12 15 c-14 17 -26 19 -34 6z" />
    <path d="M9358 753 c6 -2 10 -9 6 -14 -3 -5 2 -9 12 -9 l16 0 -12 15 c-7 8
-18 15 -24 14 l-11 -1 13 -5z" />
    <path d="M9524 738 l-7 -11 11 7 c12 7 16 16 8 16 -3 0 -8 -5 -12 -12z" />
  </g>
  <g transform="translate(0.000000,280.000000) scale(0.100000,-0.100000)" fill="#809ec1" stroke="none">
    <path d="M9438 2083 c12 -2 32 -2 45 0 12 2 2 4 -23 4 -25 0 -35 -2 -22 -4z" />
    <path d="M9328 2073 c7 -3 16 -2 19 1 4 3 -2 6 -13 5 l-19 -1 13 -5z" />
    <path d="M9578 2073 c7 -3 16 -2 19 1 4 3 -2 6 -13 5 l-19 -1 13 -5z" />
    <path d="M10330 1405 c0 -360 3 -655 8 -655 4 0 7 295 7 655 0 360 -3 655 -7
655 -5 0 -8 -295 -8 -655z" />
    <path d="M12475 2050 c3 -5 8 -10 11 -10 2 0 4 5 4 10 0 6 -5 10 -11 10 -5 0
-7 -4 -4 -10z" />
    <path d="M13340 2053 c0 -5 295 -8 655 -8 360 0 655 3 655 8 0 4 -295 7 -655
7 -360 0 -655 -3 -655 -7z" />
    <path d="M9128 2013 c7 -3 16 -2 19 1 4 3 -2 6 -13 5 l-19 -1 13 -5z" />
    <path d="M9790 2007 c0 -8 7 -14 15 -14 l15 0 -11 14 c-6 7 -13 13 -15 13 -2
0 -4 -6 -4 -13z" />
    <path d="M9090 1995 l-13 -15 17 6 c9 3 16 10 16 15 0 13 -6 11 -20 -6z" />
    <path d="M9040 1965 l-12 -15 16 0 c9 0 16 7 16 15 0 8 -2 15 -4 15 -2 0 -9
-7 -16 -15z" />
    <path d="M9850 1970 c0 -5 5 -10 11 -10 5 0 7 5 4 10 -3 6 -8 10 -11 10 -2 0
-4 -4 -4 -10z" />
    <path d="M9368 1843 c7 -3 16 -2 19 1 4 3 -2 6 -13 5 l-19 -1 13 -5z" />
    <path d="M9585 1840 l-6 -10 16 0 16 0 -6 10 c-3 6 -8 10 -10 10 -2 0 -7 -4
-10 -10z" />
    <path d="M9650 1820 l-15 -10 18 0 c9 0 17 5 17 10 0 12 -1 12 -20 0z" />
    <path d="M10598 1670 l3 -160 349 -2 c193 -2 350 0 350 5 0 4 -155 7 -345 7
l-346 0 3 155 3 155 -10 0 -10 0 3 -160z" />
    <path d="M9725 1780 c3 -5 8 -10 11 -10 3 0 2 5 -1 10 -3 6 -8 10 -11 10 -3 0
-2 -4 1 -10z" />
    <path d="M8847 1743 c-21 -39 -21 -48 -3 -31 8 7 12 16 10 20 -2 3 1 8 7 10 7
2 10 11 7 19 l-5 14 -16 -32z" />
    <path d="M9109 1683 l-14 -18 18 14 c16 13 21 21 13 21 -2 0 -10 -8 -17 -17z" />
    <path d="M8791 1604 l1 -19 5 13 c3 7 2 16 -1 19 -3 4 -6 -2 -5 -13z" />
    <path d="M9061 1584 l1 -19 5 13 c3 7 2 16 -1 19 -3 4 -6 -2 -5 -13z" />
    <path d="M8780 1564 l0 -15 10 6 c6 4 8 11 5 16 -9 14 -15 11 -15 -7z" />
    <path d="M9041 1504 l1 -19 5 13 c3 7 2 16 -1 19 -3 4 -6 -2 -5 -13z" />
    <path d="M10012 1259 l-2 -265 -12 -12 c-6 -6 -9 -14 -6 -18 4 -3 11 4 17 15
l11 20 -3 263 -2 263 -3 -266z" />
    <path d="M8770 1494 l0 -15 10 6 c6 3 10 10 10 16 0 5 -4 9 -10 9 -5 0 -10 -7
-10 -16z" />
    <path d="M8771 1314 l1 -19 5 13 c3 7 2 16 -1 19 -3 4 -6 -2 -5 -13z" />
    <path d="M9036 1311 c-4 -7 -5 -15 -2 -18 9 -9 19 4 14 18 l-4 13 -8 -13z" />
    <path d="M10602 1013 c2 -279 6 -247 10 95 2 100 0 182 -4 182 -5 0 -7 -125
-6 -277z" />
    <path d="M8800 1174 l0 -15 10 6 c6 3 10 10 10 16 0 5 -4 9 -10 9 -5 0 -10 -7
-10 -16z" />
    <path d="M9721 1047 l-11 -14 13 0 c8 0 14 6 14 14 0 7 -1 13 -2 13 -2 0 -8
-6 -14 -13z" />
    <path d="M9196 1035 c4 -8 11 -15 16 -15 l10 0 -12 15 c-7 8 -14 15 -16 15 -2
0 -1 -7 2 -15z" />
    <path d="M8870 1020 c5 -9 17 -23 26 -31 l17 -14 -13 25 c-8 14 -14 28 -13 31
1 3 -4 6 -12 6 l-14 0 9 -17z" />
    <path d="M9653 1006 c-13 -6 -23 -14 -23 -18 0 -11 18 -10 25 2 4 6 11 8 16 5
5 -4 9 1 9 9 0 9 -1 15 -2 15 -2 -1 -13 -6 -25 -13z" />
    <path d="M9268 993 c7 -3 16 -2 19 1 4 3 -2 6 -13 5 l-19 -1 13 -5z" />
    <path d="M9328 973 c7 -3 16 -2 19 1 4 3 -2 6 -13 5 l-19 -1 13 -5z" />
    <path d="M9378 963 c7 -3 16 -2 19 1 4 3 -2 6 -13 5 l-19 -1 13 -5z" />
    <path d="M9528 963 c7 -3 16 -2 19 1 4 3 -2 6 -13 5 l-19 -1 13 -5z" />
    <path d="M8920 956 c0 -2 7 -9 15 -16 l15 -12 0 10 c0 5 -7 12 -15 16 -8 3
-15 4 -15 2z" />
    <path d="M8970 906 c0 -2 7 -9 15 -16 l15 -13 -6 17 c-3 9 -10 16 -15 16 -5 0
-9 -2 -9 -4z" />
    <path d="M9020 866 c0 -2 14 -14 30 -26 17 -12 30 -19 30 -16 0 2 -13 14 -30
26 -16 12 -30 19 -30 16z" />
    <path d="M9720 779 l0 -11 -15 6 c-8 3 -15 1 -15 -4 0 -12 17 -12 44 -1 l20 8
-17 6 -17 6 0 -10z" />
    <path d="M9208 763 c7 -3 16 -2 19 1 4 3 -2 6 -13 5 l-19 -1 13 -5z" />
    <path d="M9338 733 c7 -3 16 -2 19 1 4 3 -2 6 -13 5 l-19 -1 13 -5z" />
    <path d="M9568 733 c7 -3 16 -2 19 1 4 3 -2 6 -13 5 l-19 -1 13 -5z" />
  </g>
  <g transform="translate(0.000000,280.000000) scale(0.100000,-0.100000)" fill="#c2cddd" stroke="none">
    <path d="M9343 2073 c4 -3 10 -3 14 0 3 4 0 7 -7 7 -7 0 -10 -3 -7 -7z" />
    <path d="M9563 2073 c4 -3 10 -3 14 0 3 4 0 7 -7 7 -7 0 -10 -3 -7 -7z" />
    <path d="M10333 2054 c6 -7 999 -5 1006 1 2 3 -224 5 -504 5 -280 0 -506 -3
-502 -6z" />
    <path d="M11560 2053 c126 -7 928 -7 923 0 -2 4 -223 6 -491 5 -268 -1 -462
-3 -432 -5z" />
    <path d="M14642 2030 c0 -19 2 -27 5 -17 2 9 2 25 0 35 -3 9 -5 1 -5 -18z" />
    <path d="M9723 2035 l0 -13 14 5 c7 3 13 6 13 8 0 2 -6 5 -13 8 l-14 5 0 -13z" />
    <path d="M13340 1405 c0 -357 2 -646 6 -643 6 7 5 1280 -1 1287 -3 2 -5 -287
-5 -644z" />
    <path d="M12481 2004 l1 -19 5 13 c3 7 2 16 -1 19 -3 4 -6 -2 -5 -13z" />
    <path d="M9450 1860 l-35 -7 43 -2 42 -1 0 10 c0 6 -3 9 -7 9 -5 -1 -24 -5
-43 -9z" />
    <path d="M9555 1850 c-3 -5 -1 -10 4 -10 6 0 11 5 11 10 0 6 -2 10 -4 10 -3 0
-8 -4 -11 -10z" />
    <path d="M12127 1833 c-4 -3 -7 -11 -7 -17 l0 -10 12 12 c6 6 9 14 7 17 -3 3
-9 2 -12 -2z" />
    <path d="M9796 1732 c-3 -6 -1 -14 5 -17 14 -9 20 -2 10 14 l-8 13 -7 -10z" />
    <path d="M8795 1590 c3 -5 8 -10 11 -10 3 0 2 5 -1 10 -3 6 -8 10 -11 10 -3 0
-2 -4 1 -10z" />
    <path d="M9025 1410 c0 -22 3 -40 7 -40 5 0 8 18 8 40 0 22 -3 40 -8 40 -4 0
-7 -18 -7 -40z" />
    <path d="M8770 1350 c0 -7 3 -10 7 -7 3 4 3 10 0 14 -4 3 -7 0 -7 -7z" />
    <path d="M9080 1181 c0 -6 4 -13 10 -16 l10 -6 -6 15 c-7 18 -14 21 -14 7z" />
    <path d="M8856 1047 c3 -10 9 -15 12 -12 3 3 0 11 -7 18 l-12 12 7 -18z" />
    <path d="M9358 963 c7 -3 16 -2 19 1 4 3 -2 6 -13 5 l-19 -1 13 -5z" />
    <path d="M12122 780 c0 -19 2 -27 5 -17 2 9 2 25 0 35 -3 9 -5 1 -5 -18z" />
    <path d="M9540 740 c0 -6 7 -10 15 -10 8 0 15 2 15 4 0 2 -7 6 -15 10 -8 3
-15 1 -15 -4z" />
  </g>
  <g transform="translate(0.000000,280.000000) scale(0.100000,-0.100000)" fill="#fdf7fd" stroke="none">
    <path d="M9596 2054 c-9 -8 -16 -18 -16 -20 0 -7 38 15 45 26 10 16 -12 12
-29 -6z" />
    <path d="M9650 2050 l-15 -10 13 0 c7 0 10 -4 7 -10 l-6 -10 15 6 c8 3 17 12
20 20 l5 14 -12 0 c-7 0 -19 -5 -27 -10z" />
    <path d="M10390 2049 c0 -5 5 -7 10 -4 6 3 10 8 10 11 0 2 -4 4 -10 4 -5 0
-10 -5 -10 -11z" />
    <path d="M12440 2046 l10 -10 10 10 10 10 -20 0 -20 0 10 -10z" />
    <path d="M9226 2038 c3 -4 12 -8 20 -8 8 0 14 4 14 8 0 4 -9 8 -19 8 -11 0
-17 -4 -15 -8z" />
    <path d="M9295 2029 c-4 -6 -5 -12 -2 -15 2 -3 7 2 10 11 7 17 1 20 -8 4z" />
    <path d="M9346 2032 c-3 -5 1 -9 9 -9 8 0 12 4 9 9 -3 4 -7 8 -9 8 -2 0 -6 -4
-9 -8z" />
    <path d="M11516 2027 c3 -10 9 -15 12 -12 3 3 0 11 -7 18 l-12 12 7 -18z" />
    <path d="M9610 2014 l0 -15 10 6 c6 4 8 11 5 16 -9 14 -15 11 -15 -7z" />
    <path d="M12420 2010 c0 -7 3 -10 7 -7 3 4 3 10 0 14 -4 3 -7 0 -7 -7z" />
    <path d="M14585 2010 c-3 -5 -1 -10 4 -10 6 0 11 5 11 10 0 6 -2 10 -4 10 -3
0 -8 -4 -11 -10z" />
    <path d="M9100 2000 c0 -5 5 -10 10 -10 6 0 10 5 10 10 0 6 -4 10 -10 10 -5 0
-10 -4 -10 -10z" />
    <path d="M11504 1915 c0 -49 1 -71 3 -48 2 23 2 64 0 90 -2 26 -3 8 -3 -42z" />
    <path d="M9773 1983 c4 -3 10 -3 14 0 3 4 0 7 -7 7 -7 0 -10 -3 -7 -7z" />
    <path d="M9095 1970 c-3 -5 -1 -10 4 -10 6 0 11 5 11 10 0 6 -2 10 -4 10 -3 0
-8 -4 -11 -10z" />
    <path d="M9775 1940 c3 -5 8 -10 11 -10 3 0 2 5 -1 10 -3 6 -8 10 -11 10 -3 0
-2 -4 1 -10z" />
    <path d="M9858 1943 c7 -3 16 -2 19 1 4 3 -2 6 -13 5 l-19 -1 13 -5z" />
    <path d="M9905 1920 c10 -11 22 -17 27 -14 l9 6 -12 14 c-6 8 -18 14 -27 14
l-15 0 18 -20z" />
    <path d="M9383 1913 c4 -3 10 -3 14 0 3 4 0 7 -7 7 -7 0 -10 -3 -7 -7z" />
    <path d="M9480 1916 c0 -2 7 -6 15 -10 8 -3 15 -1 15 4 0 6 -7 10 -15 10 -8 0
-15 -2 -15 -4z" />
    <path d="M9538 1913 c7 -3 16 -2 19 1 4 3 -2 6 -13 5 l-19 -1 13 -5z" />
    <path d="M9493 1875 c0 -6 8 -11 18 -11 10 0 16 3 13 7 -2 4 6 10 18 12 l23 4
-36 -1 c-20 0 -36 -6 -36 -11z" />
    <path d="M9573 1883 c4 -3 10 -3 14 0 3 4 0 7 -7 7 -7 0 -10 -3 -7 -7z" />
    <path d="M9363 1873 c4 -3 10 -3 14 0 3 4 0 7 -7 7 -7 0 -10 -3 -7 -7z" />
    <path d="M9448 1873 c7 -3 16 -2 19 1 4 3 -2 6 -13 5 l-19 -1 13 -5z" />
    <path d="M8923 1845 c0 -8 4 -12 9 -9 5 3 6 10 3 15 -9 13 -12 11 -12 -6z" />
    <path d="M9174 1828 l-7 -11 11 7 c12 7 16 16 8 16 -3 0 -8 -5 -12 -12z" />
    <path d="M9243 1820 c-1 -11 2 -20 7 -20 4 0 7 7 6 15 -3 23 -12 26 -13 5z" />
    <path d="M9715 1830 c3 -5 8 -10 11 -10 3 0 2 5 -1 10 -3 6 -8 10 -11 10 -3 0
-2 -4 1 -10z" />
    <path d="M9740 1830 c0 -7 3 -10 7 -7 3 4 3 10 0 14 -4 3 -7 0 -7 -7z" />
    <path d="M10587 1829 c7 -7 15 -10 18 -7 3 3 -2 9 -12 12 l-18 7 12 -12z" />
    <path d="M9660 1819 c0 -5 5 -7 10 -4 6 3 10 8 10 11 0 2 -4 4 -10 4 -5 0 -10
-5 -10 -11z" />
    <path d="M9874 1818 l-7 -11 11 7 c12 7 16 16 8 16 -3 0 -8 -5 -12 -12z" />
    <path d="M9206 1797 c3 -10 9 -15 12 -12 3 3 0 11 -7 18 l-12 12 7 -18z" />
    <path d="M10575 1800 c3 -5 8 -10 11 -10 2 0 4 5 4 10 0 6 -5 10 -11 10 -5 0
-7 -4 -4 -10z" />
    <path d="M12100 1805 c0 -2 7 -8 15 -15 l15 -12 0 14 c0 8 -7 15 -15 15 -8 0
-15 -1 -15 -2z" />
    <path d="M9875 1790 c4 -6 11 -8 16 -5 14 9 11 15 -7 15 l-15 0 6 -10z" />
    <path d="M8856 1752 l-7 -12 12 0 11 0 -5 -21 -6 -22 11 11 11 11 -10 23 -9
22 -8 -12z" />
    <path d="M9835 1750 c3 -5 8 -10 11 -10 3 0 2 5 -1 10 -3 6 -8 10 -11 10 -3 0
-2 -4 1 -10z" />
    <path d="M10582 1648 c-1 -64 -5 -125 -8 -135 l-6 -18 12 17 11 17 -4 118 -3
118 -2 -117z" />
    <path d="M9105 1740 l-6 -10 18 7 18 6 -18 -20 -18 -21 16 -6 16 -6 -3 18 -3
17 13 -2 c18 -4 15 14 -4 21 -21 8 -22 8 -29 -4z" />
    <path d="M9786 1742 c-3 -5 1 -9 9 -9 8 0 12 4 9 9 -3 4 -7 8 -9 8 -2 0 -6 -4
-9 -8z" />
    <path d="M8843 1723 c4 -3 10 -3 14 0 3 4 0 7 -7 7 -7 0 -10 -3 -7 -7z" />
    <path d="M9041 1536 l-12 -14 9 -6 c6 -3 13 1 16 10 9 23 2 28 -13 10z" />
    <path d="M8772 1506 c1 -14 6 -22 10 -20 12 7 10 44 -2 44 -5 0 -9 -11 -8 -24z" />
    <path d="M10627 1494 c-8 -8 1 -24 12 -24 4 0 8 7 8 15 0 16 -9 20 -20 9z" />
    <path d="M8770 1460 c0 -5 5 -10 11 -10 5 0 7 5 4 10 -3 6 -8 10 -11 10 -2 0
-4 -4 -4 -10z" />
    <path d="M9020 1439 c0 -5 5 -7 10 -4 6 3 10 8 10 11 0 2 -4 4 -10 4 -5 0 -10
-5 -10 -11z" />
    <path d="M8970 1410 c0 -7 3 -10 7 -7 3 4 3 10 0 14 -4 3 -7 0 -7 -7z" />
    <path d="M9011 1372 l-10 -19 13 0 c6 0 13 9 13 19 1 10 0 18 -2 18 -2 0 -9
-8 -14 -18z" />
    <path d="M8970 1370 c0 -7 3 -10 7 -7 3 4 3 10 0 14 -4 3 -7 0 -7 -7z" />
    <path d="M8790 1336 c0 -31 6 -34 13 -6 3 11 1 23 -4 26 -5 3 -9 -6 -9 -20z" />
    <path d="M8981 1334 l1 -19 5 13 c3 7 2 16 -1 19 -3 4 -6 -2 -5 -13z" />
    <path d="M9440 1325 l0 -10 127 5 c130 4 119 7 -40 12 l-87 3 0 -10z" />
    <path d="M10573 1323 c4 -3 10 -3 14 0 3 4 0 7 -7 7 -7 0 -10 -3 -7 -7z" />
    <path d="M9037 1313 c-10 -9 -9 -23 1 -23 5 0 9 7 9 15 0 17 -1 18 -10 8z" />
    <path d="M9684 1298 l-7 -11 11 7 c12 7 16 16 8 16 -3 0 -8 -5 -12 -12z" />
    <path d="M10575 1300 c-3 -5 -1 -10 4 -10 6 0 11 5 11 10 0 6 -2 10 -4 10 -3
0 -8 -4 -11 -10z" />
    <path d="M8780 1260 c0 -11 2 -20 5 -20 2 0 9 9 15 20 l11 20 -16 0 -15 0 0
-20z" />
    <path d="M10584 1035 c0 -137 2 -195 3 -128 2 67 2 179 0 250 -1 70 -3 16 -3
-122z" />
    <path d="M8794 1228 l-7 -11 11 7 c12 7 16 16 8 16 -3 0 -8 -5 -12 -12z" />
    <path d="M8843 1193 c4 -3 10 -3 14 0 3 4 0 7 -7 7 -7 0 -10 -3 -7 -7z" />
    <path d="M8803 1177 c0 -8 6 -14 13 -14 l12 0 -5 14 c-3 7 -8 13 -12 13 -4 0
-8 -6 -8 -13z" />
    <path d="M9085 1160 c-3 -5 -1 -10 4 -10 6 0 11 5 11 10 0 6 -2 10 -4 10 -3 0
-8 -4 -11 -10z" />
    <path d="M8835 1140 c3 -5 8 -10 11 -10 3 0 2 5 -1 10 -3 6 -8 10 -11 10 -3 0
-2 -4 1 -10z" />
    <path d="M8870 1109 c0 -6 -6 -9 -13 -6 l-13 5 -1 -19 c-2 -23 9 -30 27 -18
l15 9 -14 0 -14 0 18 20 18 20 -11 0 c-7 0 -12 -5 -12 -11z" />
    <path d="M9090 1110 c0 -5 5 -10 11 -10 5 0 7 5 4 10 -3 6 -8 10 -11 10 -2 0
-4 -4 -4 -10z" />
    <path d="M9750 1070 l-15 -10 12 0 c6 0 15 5 18 10 8 12 4 12 -15 0z" />
    <path d="M9140 1050 c0 -5 5 -10 11 -10 5 0 7 5 4 10 -3 6 -8 10 -11 10 -2 0
-4 -4 -4 -10z" />
    <path d="M9170 1044 l0 -15 10 6 c6 4 8 11 5 16 -9 14 -15 11 -15 -7z" />
    <path d="M8946 1032 c-3 -5 1 -9 9 -9 8 0 12 4 9 9 -3 4 -7 8 -9 8 -2 0 -6 -4
-9 -8z" />
    <path d="M9963 1023 c4 -3 10 -3 14 0 3 4 0 7 -7 7 -7 0 -10 -3 -7 -7z" />
    <path d="M9670 1005 l0 -14 15 5 c8 4 12 10 9 15 -8 14 -24 10 -24 -6z" />
    <path d="M8920 1000 l-15 -10 12 0 c6 0 15 5 18 10 8 12 4 12 -15 0z" />
    <path d="M8954 978 l-7 -11 11 7 c12 7 16 16 8 16 -3 0 -8 -5 -12 -12z" />
    <path d="M9140 980 c0 -5 5 -10 11 -10 5 0 7 5 4 10 -3 6 -8 10 -11 10 -2 0
-4 -4 -4 -10z" />
    <path d="M9285 980 c-3 -5 -2 -10 4 -10 5 0 13 5 16 10 3 6 2 10 -4 10 -5 0
-13 -4 -16 -10z" />
    <path d="M9610 986 c0 -2 6 -9 13 -15 l14 -11 0 15 c0 8 -6 15 -14 15 -7 0
-13 -2 -13 -4z" />
    <path d="M9745 980 c3 -5 8 -10 11 -10 3 0 2 5 -1 10 -3 6 -8 10 -11 10 -3 0
-2 -4 1 -10z" />
    <path d="M9705 970 c3 -5 8 -10 11 -10 3 0 2 5 -1 10 -3 6 -8 10 -11 10 -3 0
-2 -4 1 -10z" />
    <path d="M9854 948 l-7 -11 11 7 c12 7 16 16 8 16 -3 0 -8 -5 -12 -12z" />
    <path d="M9860 919 c0 -5 5 -7 10 -4 6 3 10 8 10 11 0 2 -4 4 -10 4 -5 0 -10
-5 -10 -11z" />
    <path d="M9884 908 l-7 -11 11 7 c12 7 16 16 8 16 -3 0 -8 -5 -12 -12z" />
    <path d="M9839 878 c-6 -20 -6 -39 0 -42 4 -3 7 6 7 20 0 13 -1 24 -3 24 -2 0
-3 -1 -4 -2z" />
    <path d="M9053 863 c4 -3 10 -3 14 0 3 4 0 7 -7 7 -7 0 -10 -3 -7 -7z" />
    <path d="M9085 849 c-4 -6 -5 -12 -2 -15 2 -3 7 2 10 11 7 17 1 20 -8 4z" />
    <path d="M9775 849 c-4 -6 -5 -12 -2 -15 2 -3 7 2 10 11 7 17 1 20 -8 4z" />
    <path d="M9790 830 c0 -5 5 -10 10 -10 6 0 10 5 10 10 0 6 -4 10 -10 10 -5 0
-10 -4 -10 -10z" />
    <path d="M9206 792 c-3 -5 1 -9 9 -9 8 0 12 4 9 9 -3 4 -7 8 -9 8 -2 0 -6 -4
-9 -8z" />
    <path d="M10354 788 l-7 -11 11 7 c12 7 16 16 8 16 -3 0 -8 -5 -12 -12z" />
    <path d="M13343 782 l1 -19 18 5 c22 5 19 26 -5 30 l-16 3 2 -19z m24 1 c-4
-3 -10 -3 -14 0 -3 4 0 7 7 7 7 0 10 -3 7 -7z" />
    <path d="M9691 774 l1 -19 5 13 c3 7 2 16 -1 19 -3 4 -6 -2 -5 -13z" />
    <path d="M9715 780 c3 -5 8 -10 11 -10 2 0 4 5 4 10 0 6 -5 10 -11 10 -5 0 -7
-4 -4 -10z" />
    <path d="M14590 765 c0 -8 4 -15 10 -15 5 0 7 7 4 15 -4 8 -8 15 -10 15 -2 0
-4 -7 -4 -15z" />
    <path d="M14615 770 c3 -5 8 -10 11 -10 3 0 2 5 -1 10 -3 6 -8 10 -11 10 -3 0
-2 -4 1 -10z" />
    <path d="M10360 750 c0 -7 3 -10 7 -7 3 4 3 10 0 14 -4 3 -7 0 -7 -7z" />
    <path d="M10393 753 c4 -3 10 -3 14 0 3 4 0 7 -7 7 -7 0 -10 -3 -7 -7z" />
    <path d="M9535 740 c3 -5 8 -10 11 -10 2 0 4 5 4 10 0 6 -5 10 -11 10 -5 0 -7
-4 -4 -10z" />
  </g>
  <g transform="translate(0.000000,280.000000) scale(0.100000,-0.100000)" fill="#bdcedf" stroke="none">
    <path d="M11335 2060 c-3 -5 -1 -10 4 -10 6 0 11 5 11 10 0 6 -2 10 -4 10 -3
0 -8 -4 -11 -10z" />
    <path d="M9210 2050 l-15 -10 18 0 c9 0 17 5 17 10 0 12 -1 12 -20 0z" />
    <path d="M10365 2050 c3 -5 8 -10 11 -10 2 0 4 5 4 10 0 6 -5 10 -11 10 -5 0
-7 -4 -4 -10z" />
    <path d="M13340 2050 c0 -7 3 -10 7 -7 3 4 3 10 0 14 -4 3 -7 0 -7 -7z" />
    <path d="M9703 2043 c4 -3 10 -3 14 0 3 4 0 7 -7 7 -7 0 -10 -3 -7 -7z" />
    <path d="M12475 2040 c-3 -5 -1 -10 4 -10 6 0 11 5 11 10 0 6 -2 10 -4 10 -3
0 -8 -4 -11 -10z" />
    <path d="M13340 2010 c0 -7 3 -10 7 -7 3 4 3 10 0 14 -4 3 -7 0 -7 -7z" />
    <path d="M14645 1380 c0 -349 1 -492 2 -317 2 174 2 460 0 635 -1 174 -2 31
-2 -318z" />
    <path d="M12484 1915 c0 -49 1 -71 3 -48 2 23 2 64 0 90 -2 26 -3 8 -3 -42z" />
    <path d="M9886 1945 c4 -8 11 -15 16 -15 l10 0 -12 15 c-7 8 -14 15 -16 15 -2
0 -1 -7 2 -15z" />
    <path d="M9620 1826 c0 -2 7 -7 16 -10 l15 -6 -6 10 c-6 10 -25 14 -25 6z" />
    <path d="M12125 1818 c-3 -7 -4 -240 -3 -518 l3 -505 5 518 c3 284 4 517 2
517 -1 0 -5 -6 -7 -12z" />
    <path d="M9889 1793 l-14 -18 18 14 c16 13 21 21 13 21 -2 0 -10 -8 -17 -17z" />
    <path d="M9444 1415 c0 -60 1 -84 3 -52 2 32 2 81 0 110 -2 29 -3 3 -3 -58z" />
    <path d="M11294 1410 c0 -52 1 -74 3 -47 2 26 2 68 0 95 -2 26 -3 4 -3 -48z" />
    <path d="M8771 1474 l1 -19 5 13 c3 7 2 16 -1 19 -3 4 -6 -2 -5 -13z" />
    <path d="M9026 1393 l-7 -18 12 12 c7 7 10 15 7 18 -3 3 -9 -2 -12 -12z" />
    <path d="M8771 1334 l1 -19 5 13 c3 7 2 16 -1 19 -3 4 -6 -2 -5 -13z" />
    <path d="M9051 1254 l1 -19 5 13 c3 7 2 16 -1 19 -3 4 -6 -2 -5 -13z" />
    <path d="M9100 1136 c0 -2 8 -10 18 -17 l17 -14 -14 18 c-13 16 -21 21 -21 13z" />
    <path d="M9605 983 l-30 -14 30 6 c31 7 41 12 34 19 -2 2 -17 -3 -34 -11z" />
    <path d="M9075 830 c-3 -5 -1 -10 4 -10 6 0 11 5 11 10 0 6 -2 10 -4 10 -3 0
-8 -4 -11 -10z" />
    <path d="M13340 790 c0 -7 3 -10 7 -7 3 4 3 10 0 14 -4 3 -7 0 -7 -7z" />
    <path d="M12120 780 c0 -7 3 -10 7 -7 3 4 3 10 0 14 -4 3 -7 0 -7 -7z" />
    <path d="M13340 760 c0 -7 3 -10 7 -7 3 4 3 10 0 14 -4 3 -7 0 -7 -7z" />
    <path d="M9248 753 c7 -3 16 -2 19 1 4 3 -2 6 -13 5 l-19 -1 13 -5z" />
  </g>
  <g transform="translate(0.000000,280.000000) scale(0.100000,-0.100000)" fill="#faf6f3" stroke="none">
    <path d="M9535 2080 c3 -5 8 -10 11 -10 3 0 2 5 -1 10 -3 6 -8 10 -11 10 -3 0
-2 -4 1 -10z" />
    <path d="M9284 2063 c10 -11 37 -12 30 -2 -3 5 -12 9 -21 9 -9 0 -13 -3 -9 -7z" />
    <path d="M9245 2050 c4 -6 11 -8 16 -5 14 9 11 15 -7 15 l-15 0 6 -10z" />
    <path d="M10355 2049 c-4 -6 -5 -12 -2 -15 2 -3 7 2 10 11 7 17 1 20 -8 4z" />
    <path d="M9175 2030 c3 -5 8 -10 11 -10 2 0 4 5 4 10 0 6 -5 10 -11 10 -5 0
-7 -4 -4 -10z" />
    <path d="M9744 2018 l-7 -11 11 7 c12 7 16 16 8 16 -3 0 -8 -5 -12 -12z" />
    <path d="M9786 1993 l-7 -18 12 12 c7 7 10 15 7 18 -3 3 -9 -2 -12 -12z" />
    <path d="M9087 1969 c7 -7 15 -10 18 -7 3 3 -2 9 -12 12 l-18 7 12 -12z" />
    <path d="M9813 1953 c4 -3 10 -3 14 0 3 4 0 7 -7 7 -7 0 -10 -3 -7 -7z" />
    <path d="M9110 1940 c0 -7 3 -10 7 -7 3 4 3 10 0 14 -4 3 -7 0 -7 -7z" />
    <path d="M9006 1928 c3 -5 10 -6 15 -3 13 9 11 12 -6 12 -8 0 -12 -4 -9 -9z" />
    <path d="M9915 1920 c3 -5 11 -10 16 -10 6 0 7 5 4 10 -3 6 -11 10 -16 10 -6
0 -7 -4 -4 -10z" />
    <path d="M8995 1899 c-4 -6 -14 -8 -24 -4 l-16 6 13 -12 12 -13 17 17 c10 9
14 17 11 17 -4 0 -10 -5 -13 -11z" />
    <path d="M9363 1893 c4 -3 10 -3 14 0 3 4 0 7 -7 7 -7 0 -10 -3 -7 -7z" />
    <path d="M9523 1863 c4 -3 10 -3 14 0 3 4 0 7 -7 7 -7 0 -10 -3 -7 -7z" />
    <path d="M9587 1847 l-5 -14 13 0 13 0 -5 14 c-3 7 -6 13 -8 13 -2 0 -5 -6 -8
-13z" />
    <path d="M8915 1840 c3 -5 8 -10 11 -10 3 0 2 5 -1 10 -3 6 -8 10 -11 10 -3 0
-2 -4 1 -10z" />
    <path d="M9930 1839 c0 -5 5 -7 10 -4 6 3 10 8 10 11 0 2 -4 4 -10 4 -5 0 -10
-5 -10 -11z" />
    <path d="M9139 1822 l-13 -17 13 12 c7 6 20 9 27 6 8 -3 14 -3 14 0 0 3 -6 7
-14 10 l-15 6 -12 -17z" />
    <path d="M9254 1828 l-7 -11 11 7 c7 4 12 9 12 12 0 8 -9 4 -16 -8z" />
    <path d="M9876 1828 c3 -5 10 -6 15 -3 13 9 11 12 -6 12 -8 0 -12 -4 -9 -9z" />
    <path d="M9194 1818 l-7 -11 11 7 c12 7 16 16 8 16 -3 0 -8 -5 -12 -12z" />
    <path d="M9664 1818 l-7 -11 11 7 c12 7 16 16 8 16 -3 0 -8 -5 -12 -12z" />
    <path d="M8915 1800 c-10 -11 -25 -19 -34 -18 l-15 3 -4 -19 -4 -19 29 21 c30
21 60 52 51 52 -3 0 -13 -9 -23 -20z" />
    <path d="M9685 1810 l-6 -10 15 6 c18 7 21 14 7 14 -6 0 -13 -4 -16 -10z" />
    <path d="M9154 1788 l-7 -11 11 7 c12 7 16 16 8 16 -3 0 -8 -5 -12 -12z" />
    <path d="M9705 1790 c3 -5 11 -10 16 -10 6 0 7 5 4 10 -3 6 -11 10 -16 10 -6
0 -7 -4 -4 -10z" />
    <path d="M9166 1771 l-17 -19 11 -7 10 -6 -2 13 c-2 7 2 12 8 11 6 -1 11 5 11
13 0 8 -1 14 -2 14 -1 0 -10 -9 -19 -19z" />
    <path d="M9754 1768 l-7 -11 11 7 c12 7 16 16 8 16 -3 0 -8 -5 -12 -12z" />
    <path d="M9850 1759 c0 -5 5 -7 10 -4 6 3 10 8 10 11 0 2 -4 4 -10 4 -5 0 -10
-5 -10 -11z" />
    <path d="M9065 1740 c3 -5 8 -10 11 -10 3 0 2 5 -1 10 -3 6 -8 10 -11 10 -3 0
-2 -4 1 -10z" />
    <path d="M8870 1730 c0 -7 3 -10 7 -7 3 4 3 10 0 14 -4 3 -7 0 -7 -7z" />
    <path d="M9094 1719 c3 -17 33 -20 33 -3 l0 14 -13 -11 -12 -10 -5 11 -5 11 2
-12z" />
    <path d="M9060 1680 c-6 -11 -8 -20 -6 -20 3 0 10 9 16 20 6 11 8 20 6 20 -3
0 -10 -9 -16 -20z" />
    <path d="M8843 1683 c4 -3 10 -3 14 0 3 4 0 7 -7 7 -7 0 -10 -3 -7 -7z" />
    <path d="M8803 1643 c-9 -22 2 -25 20 -5 l17 19 -16 0 c-9 0 -18 -7 -21 -14z" />
    <path d="M9045 1529 c-4 -6 -5 -12 -2 -15 2 -3 7 2 10 11 7 17 1 20 -8 4z" />
    <path d="M8770 1519 c0 -5 5 -7 10 -4 6 3 10 8 10 11 0 2 -4 4 -10 4 -5 0 -10
-5 -10 -11z" />
    <path d="M10633 1493 c4 -3 10 -3 14 0 3 4 0 7 -7 7 -7 0 -10 -3 -7 -7z" />
    <path d="M9025 1450 c-3 -5 -1 -10 4 -10 6 0 11 5 11 10 0 6 -2 10 -4 10 -3 0
-8 -4 -11 -10z" />
    <path d="M9000 1410 c0 -7 3 -10 7 -7 3 4 3 10 0 14 -4 3 -7 0 -7 -7z" />
    <path d="M9023 1364 l0 -27 9 17 10 18 -10 10 -9 10 0 -28z" />
    <path d="M10580 1300 c0 -7 3 -10 7 -7 3 4 3 10 0 14 -4 3 -7 0 -7 -7z" />
    <path d="M8824 1168 l-7 -11 11 7 c12 7 16 16 8 16 -3 0 -8 -5 -12 -12z" />
    <path d="M9075 1129 c-4 -6 -5 -12 -2 -15 2 -3 7 2 10 11 7 17 1 20 -8 4z" />
    <path d="M8864 1098 l-7 -11 11 7 c7 4 12 9 12 12 0 8 -9 4 -16 -8z" />
    <path d="M9102 1096 c7 -8 15 -12 17 -11 5 6 -10 25 -20 25 l-10 0 13 -14z" />
    <path d="M9129 1073 l-14 -18 18 14 c16 13 21 21 13 21 -2 0 -10 -8 -17 -17z" />
    <path d="M9094 1058 l-7 -11 11 7 c7 4 12 9 12 12 0 8 -9 4 -16 -8z" />
    <path d="M9143 1043 c4 -3 10 -3 14 0 3 4 0 7 -7 7 -7 0 -10 -3 -7 -7z" />
    <path d="M9175 1040 c-8 -12 12 -40 28 -40 6 0 3 6 -8 13 l-18 14 7 11 c4 7 5
12 2 12 -3 0 -8 -5 -11 -10z" />
    <path d="M8883 1019 c-1 -10 2 -19 8 -19 11 0 12 27 1 34 -4 2 -9 -4 -9 -15z" />
    <path d="M9724 1028 l-7 -11 11 7 c12 7 16 16 8 16 -3 0 -8 -5 -12 -12z" />
    <path d="M8935 1019 c-10 -15 3 -25 16 -12 l11 11 -10 6 c-6 3 -14 1 -17 -5z" />
    <path d="M9225 1010 c-3 -5 3 -13 13 -19 l19 -10 0 14 c0 17 -24 28 -32 15z" />
    <path d="M9680 1016 c0 -2 8 -10 18 -17 l17 -14 -14 18 c-13 16 -21 21 -21 13z" />
    <path d="M9730 1009 l-15 -11 16 5 c9 3 23 0 30 -6 l13 -12 -13 18 c-7 9 -14
17 -15 17 0 0 -8 -5 -16 -11z" />
    <path d="M9141 984 l1 -19 5 13 c3 7 2 16 -1 19 -3 4 -6 -2 -5 -13z" />
    <path d="M9284 978 l-7 -11 11 7 c12 7 16 16 8 16 -3 0 -8 -5 -12 -12z" />
    <path d="M8910 972 c0 -5 7 -9 15 -9 8 0 15 4 15 9 0 4 -7 8 -15 8 -8 0 -15
-4 -15 -8z" />
    <path d="M9674 968 l-7 -11 11 7 c12 7 16 16 8 16 -3 0 -8 -5 -12 -12z" />
    <path d="M9953 953 c4 -3 10 -3 14 0 3 4 0 7 -7 7 -7 0 -10 -3 -7 -7z" />
    <path d="M8964 938 l-7 -11 11 7 c12 7 16 16 8 16 -3 0 -8 -5 -12 -12z" />
    <path d="M9865 930 c-3 -5 -1 -10 4 -10 6 0 11 5 11 10 0 6 -2 10 -4 10 -3 0
-8 -4 -11 -10z" />
    <path d="M9890 920 c0 -7 3 -10 7 -7 3 4 3 10 0 14 -4 3 -7 0 -7 -7z" />
    <path d="M9916 914 c-9 -8 -13 -20 -10 -25 l6 -10 14 12 c7 6 12 15 9 19 -3 5
1 11 7 13 l13 5 -12 1 c-6 1 -19 -6 -27 -15z m14 -8 c0 -3 -5 -8 -12 -12 l-11
-7 7 11 c7 12 16 16 16 8z" />
    <path d="M8975 910 c-3 -5 -2 -10 4 -10 5 0 13 5 16 10 3 6 2 10 -4 10 -5 0
-13 -4 -16 -10z" />
    <path d="M9010 900 c0 -7 3 -10 7 -7 3 4 3 10 0 14 -4 3 -7 0 -7 -7z" />
    <path d="M9066 872 c-3 -5 1 -9 9 -9 8 0 15 4 15 9 0 4 -4 8 -9 8 -6 0 -12 -4
-15 -8z" />
    <path d="M9820 876 c0 -2 8 -10 18 -17 l17 -14 -14 18 c-13 16 -21 21 -21 13z" />
    <path d="M9860 871 c0 -6 4 -13 10 -16 l10 -6 -6 15 c-7 18 -14 21 -14 7z" />
    <path d="M9100 820 c0 -7 3 -10 7 -7 3 4 3 10 0 14 -4 3 -7 0 -7 -7z" />
    <path d="M9790 826 c0 -2 7 -7 16 -10 l15 -6 -6 10 c-6 10 -25 14 -25 6z" />
    <path d="M9186 785 c-3 -8 -1 -15 4 -15 13 0 22 18 11 24 -5 3 -11 -1 -15 -9z" />
    <path d="M9363 785 c0 -8 4 -12 9 -9 5 3 6 10 3 15 -9 13 -12 11 -12 -6z" />
    <path d="M9223 783 c4 -3 10 -3 14 0 3 4 0 7 -7 7 -7 0 -10 -3 -7 -7z" />
    <path d="M9527 779 c7 -7 15 -10 18 -7 3 3 -2 9 -12 12 l-18 7 12 -12z" />
    <path d="M9720 780 c0 -7 3 -10 7 -7 3 4 3 10 0 14 -4 3 -7 0 -7 -7z" />
    <path d="M10350 780 c0 -5 5 -10 11 -10 5 0 7 5 4 10 -3 6 -8 10 -11 10 -2 0
-4 -4 -4 -10z" />
    <path d="M13370 780 c0 -7 3 -10 7 -7 3 4 3 10 0 14 -4 3 -7 0 -7 -7z" />
    <path d="M9323 773 c4 -3 10 -3 14 0 3 4 0 7 -7 7 -7 0 -10 -3 -7 -7z" />
    <path d="M9633 773 c4 -3 10 -3 14 0 3 4 0 7 -7 7 -7 0 -10 -3 -7 -7z" />
    <path d="M10575 770 c-3 -5 -1 -10 4 -10 6 0 11 5 11 10 0 6 -2 10 -4 10 -3 0
-8 -4 -11 -10z" />
    <path d="M12100 770 c0 -7 3 -10 7 -7 3 4 3 10 0 14 -4 3 -7 0 -7 -7z" />
    <path d="M9603 763 c4 -3 10 -3 14 0 3 4 0 7 -7 7 -7 0 -10 -3 -7 -7z" />
    <path d="M9305 750 l-6 -10 15 6 c18 7 21 14 7 14 -6 0 -13 -4 -16 -10z" />
    <path d="M14593 753 c4 -3 10 -3 14 0 3 4 0 7 -7 7 -7 0 -10 -3 -7 -7z" />
    <path d="M9595 740 l-6 -10 15 6 c18 7 21 14 7 14 -6 0 -13 -4 -16 -10z" />
    <path d="M9425 730 l-6 -10 16 0 16 0 -6 10 c-3 6 -8 10 -10 10 -2 0 -7 -4
-10 -10z" />
  </g>
  <g transform="translate(0.000000,280.000000) scale(0.100000,-0.100000)" fill="#f1f7f1" stroke="none">
    <path d="M9603 2065 l0 -13 14 5 c7 3 13 6 13 8 0 2 -6 5 -13 8 l-14 5 0 -13z" />
    <path d="M9255 2060 c-3 -5 -2 -10 4 -10 5 0 13 5 16 10 3 6 2 10 -4 10 -5 0
-13 -4 -16 -10z" />
    <path d="M10365 2050 c3 -5 8 -10 11 -10 3 0 2 5 -1 10 -3 6 -8 10 -11 10 -3
0 -2 -4 1 -10z" />
    <path d="M10350 2030 c0 -7 3 -10 7 -7 3 4 3 10 0 14 -4 3 -7 0 -7 -7z" />
    <path d="M12475 2030 c3 -5 8 -10 11 -10 2 0 4 5 4 10 0 6 -5 10 -11 10 -5 0
-7 -4 -4 -10z" />
    <path d="M9155 2020 c3 -5 8 -10 11 -10 2 0 4 5 4 10 0 6 -5 10 -11 10 -5 0
-7 -4 -4 -10z" />
    <path d="M9618 2013 c7 -3 16 -2 19 1 4 3 -2 6 -13 5 l-19 -1 13 -5z" />
    <path d="M14590 2010 c0 -7 3 -10 7 -7 3 4 3 10 0 14 -4 3 -7 0 -7 -7z" />
    <path d="M9810 1989 c0 -5 5 -7 10 -4 6 3 10 8 10 11 0 2 -4 4 -10 4 -5 0 -10
-5 -10 -11z" />
    <path d="M9040 1960 l-15 -10 18 0 c9 0 17 5 17 10 0 12 -1 12 -20 0z" />
    <path d="M9853 1963 c4 -3 10 -3 14 0 3 4 0 7 -7 7 -7 0 -10 -3 -7 -7z" />
    <path d="M9874 1948 l-7 -11 11 7 c12 7 16 16 8 16 -3 0 -8 -5 -12 -12z" />
    <path d="M9934 1888 l-7 -11 11 7 c12 7 16 16 8 16 -3 0 -8 -5 -12 -12z" />
    <path d="M9960 1881 c0 -6 4 -13 10 -16 l10 -6 -6 15 c-7 18 -14 21 -14 7z" />
    <path d="M9485 1860 c3 -5 8 -10 11 -10 2 0 4 5 4 10 0 6 -5 10 -11 10 -5 0
-7 -4 -4 -10z" />
    <path d="M9554 1848 l-7 -11 11 7 c12 7 16 16 8 16 -3 0 -8 -5 -12 -12z" />
    <path d="M9295 1830 l-6 -10 15 6 c18 7 21 14 7 14 -6 0 -13 -4 -16 -10z" />
    <path d="M11335 1830 c3 -5 8 -10 11 -10 3 0 2 5 -1 10 -3 6 -8 10 -11 10 -3
0 -2 -4 1 -10z" />
    <path d="M9255 1820 c3 -5 8 -10 11 -10 3 0 2 5 -1 10 -3 6 -8 10 -11 10 -3 0
-2 -4 1 -10z" />
    <path d="M9193 1805 c0 -8 4 -12 9 -9 5 3 6 10 3 15 -9 13 -12 11 -12 -6z" />
    <path d="M8880 1800 c0 -5 5 -10 11 -10 l10 0 -7 -12 -7 -11 12 7 12 8 -12 14
c-14 17 -19 18 -19 4z" />
    <path d="M10573 1803 c4 -3 10 -3 14 0 3 4 0 7 -7 7 -7 0 -10 -3 -7 -7z" />
    <path d="M9861 1784 c6 -7 16 -11 21 -8 11 7 3 17 -18 20 l-15 2 12 -14z" />
    <path d="M9150 1783 c0 -6 8 -17 18 -24 l17 -14 -15 20 c-8 11 -16 22 -17 24
-2 2 -3 0 -3 -6z" />
    <path d="M9094 1728 l-7 -11 11 7 c12 7 16 16 8 16 -3 0 -8 -5 -12 -12z" />
    <path d="M9794 1728 l-7 -11 11 7 c7 4 12 9 12 12 0 8 -9 4 -16 -8z" />
    <path d="M9066 1707 c3 -10 9 -15 12 -12 3 3 0 11 -7 18 l-12 12 7 -18z" />
    <path d="M8824 1698 l-7 -11 11 7 c12 7 16 16 8 16 -3 0 -8 -5 -12 -12z" />
    <path d="M9085 1660 c3 -5 8 -10 11 -10 3 0 2 5 -1 10 -3 6 -8 10 -11 10 -3 0
-2 -4 1 -10z" />
    <path d="M8783 1565 c0 -8 4 -12 9 -9 5 3 6 10 3 15 -9 13 -12 11 -12 -6z" />
    <path d="M10605 1290 c-3 -5 -1 -10 4 -10 6 0 11 5 11 10 0 6 -2 10 -4 10 -3
0 -8 -4 -11 -10z" />
    <path d="M9055 1240 c3 -5 8 -10 11 -10 3 0 2 5 -1 10 -3 6 -8 10 -11 10 -3 0
-2 -4 1 -10z" />
    <path d="M8816 1162 c-3 -5 1 -9 9 -9 8 0 12 4 9 9 -3 4 -7 8 -9 8 -2 0 -6 -4
-9 -8z" />
    <path d="M8840 1110 c-8 -5 -12 -12 -9 -15 4 -3 12 1 19 10 14 17 11 19 -10 5z" />
    <path d="M8874 1108 l-7 -11 11 7 c7 4 12 9 12 12 0 8 -9 4 -16 -8z" />
    <path d="M9105 1100 c3 -5 8 -10 11 -10 3 0 2 5 -1 10 -3 6 -8 10 -11 10 -3 0
-2 -4 1 -10z" />
    <path d="M9713 1025 c0 -8 4 -12 9 -9 5 3 6 10 3 15 -9 13 -12 11 -12 -6z" />
    <path d="M8954 1018 l-7 -11 11 7 c12 7 16 16 8 16 -3 0 -8 -5 -12 -12z" />
    <path d="M9670 1009 c0 -5 5 -7 10 -4 6 3 10 8 10 11 0 2 -4 4 -10 4 -5 0 -10
-5 -10 -11z" />
    <path d="M9745 1010 c3 -5 8 -10 11 -10 3 0 2 5 -1 10 -3 6 -8 10 -11 10 -3 0
-2 -4 1 -10z" />
    <path d="M9235 1000 l-6 -10 17 7 17 6 -8 -13 -8 -13 12 7 c6 4 9 12 6 17 -8
12 -22 12 -30 -1z" />
    <path d="M9630 988 c0 -4 4 -8 9 -8 6 0 12 4 15 8 3 5 -1 9 -9 9 -8 0 -15 -4
-15 -9z" />
    <path d="M9215 980 c3 -5 8 -10 11 -10 3 0 2 5 -1 10 -3 6 -8 10 -11 10 -3 0
-2 -4 1 -10z" />
    <path d="M8930 970 c0 -7 3 -10 7 -7 3 4 3 10 0 14 -4 3 -7 0 -7 -7z" />
    <path d="M9345 970 c3 -5 8 -10 11 -10 3 0 2 5 -1 10 -3 6 -8 10 -11 10 -3 0
-2 -4 1 -10z" />
    <path d="M8945 949 c-4 -6 -5 -12 -2 -15 2 -3 7 2 10 11 7 17 1 20 -8 4z" />
    <path d="M8994 938 l-7 -11 11 7 c12 7 16 16 8 16 -3 0 -8 -5 -12 -12z" />
    <path d="M9870 930 c0 -7 3 -10 7 -7 3 4 3 10 0 14 -4 3 -7 0 -7 -7z" />
    <path d="M9946 932 c-3 -5 1 -9 9 -9 8 0 15 4 15 9 0 4 -4 8 -9 8 -6 0 -12 -4
-15 -8z" />
    <path d="M9035 900 c3 -5 8 -10 11 -10 3 0 2 5 -1 10 -3 6 -8 10 -11 10 -3 0
-2 -4 1 -10z" />
    <path d="M9813 873 c4 -3 10 -3 14 0 3 4 0 7 -7 7 -7 0 -10 -3 -7 -7z" />
    <path d="M9890 869 c0 -5 5 -7 10 -4 6 3 10 8 10 11 0 2 -4 4 -10 4 -5 0 -10
-5 -10 -11z" />
    <path d="M9085 860 c3 -5 8 -10 11 -10 3 0 2 5 -1 10 -3 6 -8 10 -11 10 -3 0
-2 -4 1 -10z" />
    <path d="M14610 780 c0 -7 3 -10 7 -7 3 4 3 10 0 14 -4 3 -7 0 -7 -7z" />
  </g>
  <g transform="translate(0.000000,280.000000) scale(0.100000,-0.100000)" fill="#305e95" stroke="none">
    <path d="M9383 2083 c4 -3 10 -3 14 0 3 4 0 7 -7 7 -7 0 -10 -3 -7 -7z" />
    <path d="M9523 2083 c4 -3 10 -3 14 0 3 4 0 7 -7 7 -7 0 -10 -3 -7 -7z" />
    <path d="M9255 2060 l-6 -10 15 6 c18 7 21 14 7 14 -6 0 -13 -4 -16 -10z" />
    <path d="M9640 2066 c0 -2 7 -7 16 -10 l15 -6 -6 10 c-6 10 -25 14 -25 6z" />
    <path d="M9220 2049 c0 -5 5 -7 10 -4 6 3 10 8 10 11 0 2 -4 4 -10 4 -5 0 -10
-5 -10 -11z" />
    <path d="M9713 2043 c4 -3 10 -3 14 0 3 4 0 7 -7 7 -7 0 -10 -3 -7 -7z" />
    <path d="M9110 2010 c-8 -5 -12 -12 -9 -15 4 -3 12 1 19 10 14 17 11 19 -10 5z" />
    <path d="M9785 2010 c3 -5 8 -10 11 -10 2 0 4 5 4 10 0 6 -5 10 -11 10 -5 0
-7 -4 -4 -10z" />
    <path d="M9050 1969 c0 -5 5 -7 10 -4 6 3 10 8 10 11 0 2 -4 4 -10 4 -5 0 -10
-5 -10 -11z" />
    <path d="M9860 1966 c0 -2 7 -7 16 -10 l15 -6 -6 10 c-6 10 -25 14 -25 6z" />
    <path d="M9006 1942 c-3 -5 1 -9 9 -9 8 0 15 4 15 9 0 4 -4 8 -9 8 -6 0 -12
-4 -15 -8z" />
    <path d="M9900 1935 c0 -2 10 -10 23 -16 l22 -12 -14 16 c-13 16 -31 23 -31
12z" />
    <path d="M8955 1899 c-11 -17 1 -21 15 -4 l12 15 -10 0 c-6 0 -14 -5 -17 -11z" />
    <path d="M9383 1843 c4 -3 10 -3 14 0 3 4 0 7 -7 7 -7 0 -10 -3 -7 -7z" />
    <path d="M9523 1843 c4 -3 10 -3 14 0 3 4 0 7 -7 7 -7 0 -10 -3 -7 -7z" />
    <path d="M9275 1820 c-3 -5 -2 -10 4 -10 5 0 13 5 16 10 3 6 2 10 -4 10 -5 0
-13 -4 -16 -10z" />
    <path d="M8877 1803 c-4 -3 -7 -11 -7 -17 l0 -10 12 12 c6 6 9 14 7 17 -3 3
-9 2 -12 -2z" />
    <path d="M9185 1770 c-3 -5 -2 -10 4 -10 5 0 13 5 16 10 3 6 2 10 -4 10 -5 0
-13 -4 -16 -10z" />
    <path d="M9751 1763 c0 -9 58 -57 63 -52 2 2 -12 17 -31 32 -18 16 -33 25 -32
20z" />
    <path d="M9127 1713 c-4 -3 -7 -11 -7 -17 l0 -10 12 12 c6 6 9 14 7 17 -3 3
-9 2 -12 -2z" />
    <path d="M8815 1679 c-4 -6 -5 -12 -2 -15 2 -3 7 2 10 11 7 17 1 20 -8 4z" />
    <path d="M9081 1633 l-11 -28 15 19 c8 11 15 23 15 28 0 15 -7 8 -19 -19z" />
    <path d="M8794 1618 l-7 -11 11 7 c12 7 16 16 8 16 -3 0 -8 -5 -12 -12z" />
    <path d="M9054 1568 l-7 -11 11 7 c12 7 16 16 8 16 -3 0 -8 -5 -12 -12z" />
    <path d="M9050 1540 c0 -7 3 -10 7 -7 3 4 3 10 0 14 -4 3 -7 0 -7 -7z" />
    <path d="M8770 1291 c0 -6 4 -13 10 -16 l10 -6 -6 15 c-7 18 -14 21 -14 7z" />
    <path d="M11290 1290 c0 -7 3 -10 7 -7 3 4 3 10 0 14 -4 3 -7 0 -7 -7z" />
    <path d="M9050 1270 c0 -7 3 -10 7 -7 3 4 3 10 0 14 -4 3 -7 0 -7 -7z" />
    <path d="M8780 1241 c0 -6 4 -13 10 -16 l10 -6 -6 15 c-7 18 -14 21 -14 7z" />
    <path d="M9060 1223 c0 -5 7 -18 15 -29 l14 -19 -6 23 c-5 22 -23 41 -23 25z" />
    <path d="M8790 1201 c0 -6 4 -13 10 -16 l10 -6 -6 15 c-7 18 -14 21 -14 7z" />
    <path d="M8807 1152 c3 -12 9 -25 14 -28 14 -8 11 10 -6 32 l-14 19 6 -23z" />
    <path d="M9130 1102 c6 -13 14 -21 18 -18 3 4 -2 14 -12 24 l-18 17 12 -23z" />
    <path d="M9741 1094 l1 -19 5 13 c3 7 2 16 -1 19 -3 4 -6 -2 -5 -13z" />
    <path d="M8875 1010 c3 -5 8 -10 11 -10 2 0 4 5 4 10 0 6 -5 10 -11 10 -5 0
-7 -4 -4 -10z" />
    <path d="M9235 1010 c3 -5 11 -10 16 -10 6 0 7 5 4 10 -3 6 -11 10 -16 10 -6
0 -7 -4 -4 -10z" />
    <path d="M9673 1013 c4 -3 10 -3 14 0 3 4 0 7 -7 7 -7 0 -10 -3 -7 -7z" />
    <path d="M9285 990 c3 -4 14 -10 25 -13 11 -3 18 -2 15 3 -3 4 -14 10 -25 13
-11 3 -18 2 -15 -3z" />
    <path d="M8900 981 c0 -5 7 -15 17 -22 l16 -14 -12 23 c-12 23 -21 28 -21 13z" />
    <path d="M9565 970 l-6 -10 15 6 c18 7 21 14 7 14 -6 0 -13 -4 -16 -10z" />
    <path d="M9508 963 c7 -3 16 -2 19 1 4 3 -2 6 -13 5 l-19 -1 13 -5z" />
    <path d="M9973 948 c-23 -30 -24 -41 -2 -21 12 12 20 25 17 28 -3 3 -10 0 -15
-7z" />
    <path d="M9915 890 c-3 -5 -1 -10 4 -10 6 0 11 5 11 10 0 6 -2 10 -4 10 -3 0
-8 -4 -11 -10z" />
    <path d="M8995 880 c3 -5 8 -10 11 -10 3 0 2 5 -1 10 -3 6 -8 10 -11 10 -3 0
-2 -4 1 -10z" />
    <path d="M9850 840 c-14 -11 -20 -20 -15 -20 6 0 21 9 35 20 14 11 21 20 15
20 -5 0 -21 -9 -35 -20z" />
    <path d="M9043 843 c4 -3 10 -3 14 0 3 4 0 7 -7 7 -7 0 -10 -3 -7 -7z" />
    <path d="M9074 828 l-7 -11 11 7 c7 4 12 9 12 12 0 8 -9 4 -16 -8z" />
    <path d="M9165 780 c3 -4 14 -10 25 -13 11 -3 18 -2 15 3 -3 4 -14 10 -25 13
-11 3 -18 2 -15 -3z" />
    <path d="M9744 778 l-7 -11 11 7 c12 7 16 16 8 16 -3 0 -8 -5 -12 -12z" />
    <path d="M9714 768 l-7 -11 11 7 c12 7 16 16 8 16 -3 0 -8 -5 -12 -12z" />
    <path d="M9227 759 c7 -7 15 -10 18 -7 3 3 -2 9 -12 12 l-18 7 12 -12z" />
    <path d="M9680 760 l-15 -10 12 0 c6 0 15 5 18 10 8 12 4 12 -15 0z" />
    <path d="M9640 750 l-15 -10 12 0 c6 0 15 5 18 10 8 12 4 12 -15 0z" />
    <path d="M9323 733 c4 -3 10 -3 14 0 3 4 0 7 -7 7 -7 0 -10 -3 -7 -7z" />
    <path d="M9413 723 c4 -3 10 -3 14 0 3 4 0 7 -7 7 -7 0 -10 -3 -7 -7z" />
  </g>
  <g transform="translate(0.000000,280.000000) scale(0.100000,-0.100000)" fill="#fcf8ea" stroke="none">
    <path d="M9593 2053 c4 -3 10 -3 14 0 3 4 0 7 -7 7 -7 0 -10 -3 -7 -7z" />
    <path d="M12424 2048 l-7 -11 11 7 c7 4 12 9 12 12 0 8 -9 4 -16 -8z" />
    <path d="M9770 2009 c0 -5 5 -7 10 -4 6 3 10 8 10 11 0 2 -4 4 -10 4 -5 0 -10
-5 -10 -11z" />
    <path d="M9075 1980 c3 -5 8 -10 11 -10 2 0 4 5 4 10 0 6 -5 10 -11 10 -5 0
-7 -4 -4 -10z" />
    <path d="M9050 1960 c0 -7 3 -10 7 -7 3 4 3 10 0 14 -4 3 -7 0 -7 -7z" />
    <path d="M9020 1940 c0 -5 5 -10 11 -10 5 0 7 5 4 10 -3 6 -8 10 -11 10 -2 0
-4 -4 -4 -10z" />
    <path d="M9893 1933 c4 -3 10 -3 14 0 3 4 0 7 -7 7 -7 0 -10 -3 -7 -7z" />
    <path d="M8935 1870 c-3 -5 -1 -10 4 -10 6 0 11 5 11 10 0 6 -2 10 -4 10 -3 0
-8 -4 -11 -10z" />
    <path d="M9185 1791 c-3 -5 -2 -12 3 -15 5 -3 9 1 9 9 0 17 -3 19 -12 6z" />
    <path d="M8856 1753 l-7 -18 12 12 c7 7 10 15 7 18 -3 3 -9 -2 -12 -12z" />
    <path d="M9140 1729 c0 -5 5 -7 10 -4 6 3 10 8 10 11 0 2 -4 4 -10 4 -5 0 -10
-5 -10 -11z" />
    <path d="M9094 1698 l-7 -11 11 7 c12 7 16 16 8 16 -3 0 -8 -5 -12 -12z" />
    <path d="M10633 1303 c4 -3 10 -3 14 0 3 4 0 7 -7 7 -7 0 -10 -3 -7 -7z" />
    <path d="M8826 1143 l-7 -18 12 12 c7 7 10 15 7 18 -3 3 -9 -2 -12 -12z" />
    <path d="M9700 1026 c0 -2 8 -10 18 -17 l17 -14 -14 18 c-13 16 -21 21 -21 13z" />
    <path d="M8880 1009 c0 -5 5 -7 10 -4 6 3 10 8 10 11 0 2 -4 4 -10 4 -5 0 -10
-5 -10 -11z" />
    <path d="M8904 988 l-7 -11 11 7 c12 7 16 16 8 16 -3 0 -8 -5 -12 -12z" />
    <path d="M9974 988 l-7 -11 11 7 c12 7 16 16 8 16 -3 0 -8 -5 -12 -12z" />
    <path d="M9223 973 c4 -3 10 -3 14 0 3 4 0 7 -7 7 -7 0 -10 -3 -7 -7z" />
    <path d="M8924 958 l-7 -11 11 7 c7 4 12 9 12 12 0 8 -9 4 -16 -8z" />
    <path d="M9965 950 c3 -5 8 -10 11 -10 3 0 2 5 -1 10 -3 6 -8 10 -11 10 -3 0
-2 -4 1 -10z" />
    <path d="M8954 928 l-7 -11 11 7 c7 4 12 9 12 12 0 8 -9 4 -16 -8z" />
    <path d="M9945 920 c3 -5 8 -10 11 -10 3 0 2 5 -1 10 -3 6 -8 10 -11 10 -3 0
-2 -4 1 -10z" />
    <path d="M8984 908 l-7 -11 11 7 c12 7 16 16 8 16 -3 0 -8 -5 -12 -12z" />
    <path d="M9024 868 l-7 -11 11 7 c12 7 16 16 8 16 -3 0 -8 -5 -12 -12z" />
    <path d="M9760 795 c-14 -16 -3 -20 19 -6 l13 9 -10 6 c-5 3 -15 -1 -22 -9z" />
    <path d="M10350 780 c0 -7 3 -10 7 -7 3 4 3 10 0 14 -4 3 -7 0 -7 -7z" />
    <path d="M10573 763 c4 -3 10 -3 14 0 3 4 0 7 -7 7 -7 0 -10 -3 -7 -7z" />
    <path d="M9280 750 c0 -5 5 -10 11 -10 5 0 7 5 4 10 -3 6 -8 10 -11 10 -2 0
-4 -4 -4 -10z" />
  </g>
  <g transform="translate(0.000000,280.000000) scale(0.100000,-0.100000)" fill="#3f70a8" stroke="none">
    <path d="M9305 2070 l-6 -10 15 6 c18 7 21 14 7 14 -6 0 -13 -4 -16 -10z" />
    <path d="M11500 1830 c0 -5 5 -10 11 -10 5 0 7 5 4 10 -3 6 -8 10 -11 10 -2 0
-4 -4 -4 -10z" />
    <path d="M12130 1830 c0 -5 5 -10 11 -10 5 0 7 5 4 10 -3 6 -8 10 -11 10 -2 0
-4 -4 -4 -10z" />
    <path d="M12480 1830 c0 -7 3 -10 7 -7 3 4 3 10 0 14 -4 3 -7 0 -7 -7z" />
    <path d="M9066 1603 l-7 -18 12 12 c7 7 10 15 7 18 -3 3 -9 -2 -12 -12z" />
    <path d="M8770 1520 c0 -7 3 -10 7 -7 3 4 3 10 0 14 -4 3 -7 0 -7 -7z" />
    <path d="M8770 1300 c0 -7 3 -10 7 -7 3 4 3 10 0 14 -4 3 -7 0 -7 -7z" />
    <path d="M9449 1297 c4 -4 61 -6 127 -5 l119 3 -127 5 c-70 3 -124 1 -119 -3z" />
    <path d="M10633 1283 c4 -3 10 -3 14 0 3 4 0 7 -7 7 -7 0 -10 -3 -7 -7z" />
    <path d="M8880 1010 c0 -7 3 -10 7 -7 3 4 3 10 0 14 -4 3 -7 0 -7 -7z" />
    <path d="M9393 963 c4 -3 10 -3 14 0 3 4 0 7 -7 7 -7 0 -10 -3 -7 -7z" />
    <path d="M9760 790 l-15 -10 12 0 c6 0 15 5 18 10 8 12 4 12 -15 0z" />
    <path d="M9583 733 c4 -3 10 -3 14 0 3 4 0 7 -7 7 -7 0 -10 -3 -7 -7z" />
    <path d="M9428 723 c7 -3 16 -2 19 1 4 3 -2 6 -13 5 l-19 -1 13 -5z" />
    <path d="M9473 723 c4 -3 10 -3 14 0 3 4 0 7 -7 7 -7 0 -10 -3 -7 -7z" />
  </g>
  <g transform="translate(0.000000,280.000000) scale(0.100000,-0.100000)" fill="#e3f1fd" stroke="none">
    <path d="M9293 2063 c4 -3 10 -3 14 0 3 4 0 7 -7 7 -7 0 -10 -3 -7 -7z" />
    <path d="M9663 2053 c4 -3 10 -3 14 0 3 4 0 7 -7 7 -7 0 -10 -3 -7 -7z" />
    <path d="M9144 2018 l-7 -11 11 7 c12 7 16 16 8 16 -3 0 -8 -5 -12 -12z" />
    <path d="M9760 2026 c0 -3 9 -10 20 -16 11 -6 20 -8 20 -6 0 3 -9 10 -20 16
-11 6 -20 8 -20 6z" />
    <path d="M9104 1998 l-7 -11 11 7 c12 7 16 16 8 16 -3 0 -8 -5 -12 -12z" />
    <path d="M9813 1993 c4 -3 10 -3 14 0 3 4 0 7 -7 7 -7 0 -10 -3 -7 -7z" />
    <path d="M9024 1948 l-7 -11 11 7 c12 7 16 16 8 16 -3 0 -8 -5 -12 -12z" />
    <path d="M9905 1930 c3 -5 8 -10 11 -10 3 0 2 5 -1 10 -3 6 -8 10 -11 10 -3 0
-2 -4 1 -10z" />
    <path d="M9940 1900 c0 -5 5 -10 11 -10 5 0 7 5 4 10 -3 6 -8 10 -11 10 -2 0
-4 -4 -4 -10z" />
    <path d="M11505 1830 c3 -5 8 -10 11 -10 3 0 2 5 -1 10 -3 6 -8 10 -11 10 -3
0 -2 -4 1 -10z" />
    <path d="M12135 1830 c3 -5 8 -10 11 -10 3 0 2 5 -1 10 -3 6 -8 10 -11 10 -3
0 -2 -4 1 -10z" />
    <path d="M8893 1818 c-15 -20 -25 -38 -20 -38 3 0 12 11 21 25 17 26 16 35 -1
13z" />
    <path d="M9244 1804 l-19 -15 25 12 c31 14 36 19 24 19 -6 0 -19 -7 -30 -16z" />
    <path d="M9700 1790 c8 -5 20 -10 25 -10 6 0 3 5 -5 10 -8 5 -19 10 -25 10 -5
0 -3 -5 5 -10z" />
    <path d="M9185 1770 l-6 -10 15 6 c18 7 21 14 7 14 -6 0 -13 -4 -16 -10z" />
    <path d="M9125 1709 c-4 -6 -5 -12 -2 -15 2 -3 7 2 10 11 7 17 1 20 -8 4z" />
    <path d="M8806 1655 c-3 -9 -6 -22 -5 -28 0 -7 5 -1 10 12 5 13 8 26 5 28 -2
2 -6 -3 -10 -12z" />
    <path d="M9030 1450 c0 -7 3 -10 7 -7 3 4 3 10 0 14 -4 3 -7 0 -7 -7z" />
    <path d="M9030 1370 c0 -7 3 -10 7 -7 3 4 3 10 0 14 -4 3 -7 0 -7 -7z" />
    <path d="M8790 1220 c0 -7 3 -10 7 -7 3 4 3 10 0 14 -4 3 -7 0 -7 -7z" />
    <path d="M8816 1137 c3 -10 9 -15 12 -12 3 3 0 11 -7 18 l-12 12 7 -18z" />
    <path d="M9100 1140 c0 -7 3 -10 7 -7 3 4 3 10 0 14 -4 3 -7 0 -7 -7z" />
    <path d="M9135 1090 c3 -5 8 -10 11 -10 3 0 2 5 -1 10 -3 6 -8 10 -11 10 -3 0
-2 -4 1 -10z" />
    <path d="M9177 1049 c7 -7 15 -10 18 -7 3 3 -2 9 -12 12 l-18 7 12 -12z" />
    <path d="M9704 1028 l-7 -11 11 7 c12 7 16 16 8 16 -3 0 -8 -5 -12 -12z" />
    <path d="M9203 1023 c4 -3 10 -3 14 0 3 4 0 7 -7 7 -7 0 -10 -3 -7 -7z" />
    <path d="M9237 1009 c7 -7 15 -10 18 -7 3 3 -2 9 -12 12 l-18 7 12 -12z" />
    <path d="M9984 963 c-15 -20 -23 -33 -16 -29 13 8 56 66 49 66 -3 0 -17 -17
-33 -37z" />
    <path d="M8905 980 c3 -5 8 -10 11 -10 3 0 2 5 -1 10 -3 6 -8 10 -11 10 -3 0
-2 -4 1 -10z" />
    <path d="M9604 978 l-7 -11 11 7 c12 7 16 16 8 16 -3 0 -8 -5 -12 -12z" />
    <path d="M9553 963 c4 -3 10 -3 14 0 3 4 0 7 -7 7 -7 0 -10 -3 -7 -7z" />
    <path d="M8973 903 c4 -3 10 -3 14 0 3 4 0 7 -7 7 -7 0 -10 -3 -7 -7z" />
    <path d="M9914 888 l-19 -23 25 20 c14 11 27 21 29 22 2 2 0 3 -6 3 -5 0 -18
-10 -29 -22z" />
    <path d="M9865 850 l-6 -10 15 6 c18 7 21 14 7 14 -6 0 -13 -4 -16 -10z" />
    <path d="M9105 810 c3 -5 8 -10 11 -10 3 0 2 5 -1 10 -3 6 -8 10 -11 10 -3 0
-2 -4 1 -10z" />
    <path d="M9653 753 c4 -3 10 -3 14 0 3 4 0 7 -7 7 -7 0 -10 -3 -7 -7z" />
  </g>
  <g transform="translate(0.000000,280.000000) scale(0.100000,-0.100000)" fill="#5e84ad" stroke="none">
    <path d="M9273 2063 c4 -3 10 -3 14 0 3 4 0 7 -7 7 -7 0 -10 -3 -7 -7z" />
    <path d="M9225 2050 l-6 -10 15 6 c18 7 21 14 7 14 -6 0 -13 -4 -16 -10z" />
    <path d="M9673 2053 c4 -3 10 -3 14 0 3 4 0 7 -7 7 -7 0 -10 -3 -7 -7z" />
    <path d="M9065 1980 l-6 -10 15 6 c18 7 21 14 7 14 -6 0 -13 -4 -16 -10z" />
    <path d="M9945 1900 c10 -11 20 -20 23 -20 3 0 -3 9 -13 20 -10 11 -20 20 -23
20 -3 0 3 -9 13 -20z" />
    <path d="M9274 1818 l-7 -11 11 7 c12 7 16 16 8 16 -3 0 -8 -5 -12 -12z" />
    <path d="M9660 1816 c0 -3 9 -10 20 -16 11 -6 20 -8 20 -6 0 3 -9 10 -20 16
-11 6 -20 8 -20 6z" />
    <path d="M9204 1778 l-7 -11 11 7 c12 7 16 16 8 16 -3 0 -8 -5 -12 -12z" />
    <path d="M9765 1750 c3 -5 8 -10 11 -10 3 0 2 5 -1 10 -3 6 -8 10 -11 10 -3 0
-2 -4 1 -10z" />
    <path d="M9824 1728 l-19 -23 23 19 c21 18 27 26 19 26 -2 0 -12 -10 -23 -22z" />
    <path d="M8820 1690 c0 -7 3 -10 7 -7 3 4 3 10 0 14 -4 3 -7 0 -7 -7z" />
    <path d="M9050 1550 c0 -7 3 -10 7 -7 3 4 3 10 0 14 -4 3 -7 0 -7 -7z" />
    <path d="M8780 1250 c0 -7 3 -10 7 -7 3 4 3 10 0 14 -4 3 -7 0 -7 -7z" />
    <path d="M9066 1207 c3 -10 9 -15 12 -12 3 3 0 11 -7 18 l-12 12 7 -18z" />
    <path d="M8831 1105 c0 -5 6 -21 14 -35 8 -14 14 -20 14 -15 0 6 -6 21 -14 35
-8 14 -14 21 -14 15z" />
    <path d="M9734 1058 l-7 -11 11 7 c12 7 16 16 8 16 -3 0 -8 -5 -12 -12z" />
    <path d="M9293 983 c4 -3 10 -3 14 0 3 4 0 7 -7 7 -7 0 -10 -3 -7 -7z" />
    <path d="M9944 908 l-7 -11 11 7 c7 4 12 9 12 12 0 8 -9 4 -16 -8z" />
    <path d="M9884 858 l-7 -11 11 7 c12 7 16 16 8 16 -3 0 -8 -5 -12 -12z" />
    <path d="M9790 805 c-14 -8 -20 -14 -14 -15 5 0 19 7 30 15 24 18 16 19 -16 0z" />
    <path d="M9120 800 c8 -5 20 -10 25 -10 6 0 3 5 -5 10 -8 5 -19 10 -25 10 -5
0 -3 -5 5 -10z" />
  </g>
  <g transform="translate(0.000000,280.000000) scale(0.100000,-0.100000)" fill="#7290b2" stroke="none">
    <path d="M9493 2083 c4 -3 10 -3 14 0 3 4 0 7 -7 7 -7 0 -10 -3 -7 -7z" />
    <path d="M9593 2073 c4 -3 10 -3 14 0 3 4 0 7 -7 7 -7 0 -10 -3 -7 -7z" />
    <path d="M9633 2063 c4 -3 10 -3 14 0 3 4 0 7 -7 7 -7 0 -10 -3 -7 -7z" />
    <path d="M9153 2023 c4 -3 10 -3 14 0 3 4 0 7 -7 7 -7 0 -10 -3 -7 -7z" />
    <path d="M9753 2023 c4 -3 10 -3 14 0 3 4 0 7 -7 7 -7 0 -10 -3 -7 -7z" />
    <path d="M9825 1990 c3 -5 8 -10 11 -10 3 0 2 5 -1 10 -3 6 -8 10 -11 10 -3 0
-2 -4 1 -10z" />
    <path d="M8994 1928 l-7 -11 11 7 c12 7 16 16 8 16 -3 0 -8 -5 -12 -12z" />
    <path d="M8914 1848 l-7 -11 11 7 c12 7 16 16 8 16 -3 0 -8 -5 -12 -12z" />
    <path d="M9538 1843 c7 -3 16 -2 19 1 4 3 -2 6 -13 5 l-19 -1 13 -5z" />
    <path d="M8884 1808 l-7 -11 11 7 c12 7 16 16 8 16 -3 0 -8 -5 -12 -12z" />
    <path d="M8770 1510 c0 -7 3 -10 7 -7 3 4 3 10 0 14 -4 3 -7 0 -7 -7z" />
    <path d="M11290 1510 c0 -7 3 -10 7 -7 3 4 3 10 0 14 -4 3 -7 0 -7 -7z" />
    <path d="M9740 1290 c0 -7 3 -10 7 -7 3 4 3 10 0 14 -4 3 -7 0 -7 -7z" />
    <path d="M8790 1210 c0 -7 3 -10 7 -7 3 4 3 10 0 14 -4 3 -7 0 -7 -7z" />
    <path d="M8810 1150 c0 -7 3 -10 7 -7 3 4 3 10 0 14 -4 3 -7 0 -7 -7z" />
    <path d="M9095 1150 c3 -5 8 -10 11 -10 3 0 2 5 -1 10 -3 6 -8 10 -11 10 -3 0
-2 -4 1 -10z" />
    <path d="M9850 840 l-15 -10 12 0 c6 0 15 5 18 10 8 12 4 12 -15 0z" />
    <path d="M9183 773 c4 -3 10 -3 14 0 3 4 0 7 -7 7 -7 0 -10 -3 -7 -7z" />
    <path d="M9663 753 c4 -3 10 -3 14 0 3 4 0 7 -7 7 -7 0 -10 -3 -7 -7z" />
    <path d="M9283 743 c4 -3 10 -3 14 0 3 4 0 7 -7 7 -7 0 -10 -3 -7 -7z" />
    <path d="M9623 743 c4 -3 10 -3 14 0 3 4 0 7 -7 7 -7 0 -10 -3 -7 -7z" />
  </g>
  <g transform="translate(0.000000,280.000000) scale(0.100000,-0.100000)" fill="#c5d7ee" stroke="none">
    <path d="M11503 2053 c4 -3 10 -3 14 0 3 4 0 7 -7 7 -7 0 -10 -3 -7 -7z" />
    <path d="M9745 2030 c3 -5 8 -10 11 -10 3 0 2 5 -1 10 -3 6 -8 10 -11 10 -3 0
-2 -4 1 -10z" />
    <path d="M14640 2030 c0 -7 3 -10 7 -7 3 4 3 10 0 14 -4 3 -7 0 -7 -7z" />
    <path d="M8949 1883 l-34 -38 38 34 c34 33 42 41 34 41 -2 0 -19 -17 -38 -37z" />
    <path d="M9919 1823 l-24 -28 28 24 c15 14 27 26 27 28 0 8 -8 1 -31 -24z" />
    <path d="M9160 1745 c-12 -13 -27 -22 -33 -18 l-10 6 8 -12 7 -13 29 28 c16
15 29 29 29 31 0 7 -8 1 -30 -22z" />
    <path d="M11290 1500 c0 -7 3 -10 7 -7 3 4 3 10 0 14 -4 3 -7 0 -7 -7z" />
    <path d="M11290 1320 c0 -7 3 -10 7 -7 3 4 3 10 0 14 -4 3 -7 0 -7 -7z" />
    <path d="M9440 1310 c0 -7 3 -10 7 -7 3 4 3 10 0 14 -4 3 -7 0 -7 -7z" />
    <path d="M9155 1070 c10 -11 20 -20 23 -20 3 0 -3 9 -13 20 -10 11 -20 20 -23
20 -3 0 3 -9 13 -20z" />
    <path d="M9984 958 l-7 -11 11 7 c12 7 16 16 8 16 -3 0 -8 -5 -12 -12z" />
    <path d="M9894 868 l-7 -11 11 7 c12 7 16 16 8 16 -3 0 -8 -5 -12 -12z" />
    <path d="M9293 743 c4 -3 10 -3 14 0 3 4 0 7 -7 7 -7 0 -10 -3 -7 -7z" />
  </g>
  <g transform="translate(0.000000,280.000000) scale(0.100000,-0.100000)" fill="#e0e8f3" stroke="none">
    <path d="M9283 2063 c4 -3 10 -3 14 0 3 4 0 7 -7 7 -7 0 -10 -3 -7 -7z" />
    <path d="M9164 2028 l-7 -11 11 7 c7 4 12 9 12 12 0 8 -9 4 -16 -8z" />
    <path d="M9054 1968 l-7 -11 11 7 c12 7 16 16 8 16 -3 0 -8 -5 -12 -12z" />
    <path d="M9944 1848 l-7 -11 11 7 c12 7 16 16 8 16 -3 0 -8 -5 -12 -12z" />
    <path d="M9313 1833 c4 -3 10 -3 14 0 3 4 0 7 -7 7 -7 0 -10 -3 -7 -7z" />
    <path d="M9283 1823 c4 -3 10 -3 14 0 3 4 0 7 -7 7 -7 0 -10 -3 -7 -7z" />
    <path d="M8860 1770 c0 -7 3 -10 7 -7 3 4 3 10 0 14 -4 3 -7 0 -7 -7z" />
    <path d="M9755 1760 c3 -5 8 -10 11 -10 3 0 2 5 -1 10 -3 6 -8 10 -11 10 -3 0
-2 -4 1 -10z" />
    <path d="M9050 1560 c0 -7 3 -10 7 -7 3 4 3 10 0 14 -4 3 -7 0 -7 -7z" />
    <path d="M8770 1460 c0 -7 3 -10 7 -7 3 4 3 10 0 14 -4 3 -7 0 -7 -7z" />
    <path d="M8780 1270 c0 -7 3 -10 7 -7 3 4 3 10 0 14 -4 3 -7 0 -7 -7z" />
    <path d="M9060 1220 c0 -7 3 -10 7 -7 3 4 3 10 0 14 -4 3 -7 0 -7 -7z" />
    <path d="M8825 1110 c3 -5 8 -10 11 -10 3 0 2 5 -1 10 -3 6 -8 10 -11 10 -3 0
-2 -4 1 -10z" />
    <path d="M9834 828 l-7 -11 11 7 c12 7 16 16 8 16 -3 0 -8 -5 -12 -12z" />
  </g>
  <g transform="translate(0.000000,280.000000) scale(0.100000,-0.100000)" fill="#51719f" stroke="none">
    <path d="M9173 2033 c4 -3 10 -3 14 0 3 4 0 7 -7 7 -7 0 -10 -3 -7 -7z" />
    <path d="M9323 1833 c4 -3 10 -3 14 0 3 4 0 7 -7 7 -7 0 -10 -3 -7 -7z" />
    <path d="M10603 1823 c4 -3 10 -3 14 0 3 4 0 7 -7 7 -7 0 -10 -3 -7 -7z" />
    <path d="M11513 1823 c4 -3 10 -3 14 0 3 4 0 7 -7 7 -7 0 -10 -3 -7 -7z" />
    <path d="M12453 1823 c4 -3 10 -3 14 0 3 4 0 7 -7 7 -7 0 -10 -3 -7 -7z" />
    <path d="M8864 1778 l-7 -11 11 7 c12 7 16 16 8 16 -3 0 -8 -5 -12 -12z" />
    <path d="M8800 1640 c0 -7 3 -10 7 -7 3 4 3 10 0 14 -4 3 -7 0 -7 -7z" />
    <path d="M10603 1283 c4 -3 10 -3 14 0 3 4 0 7 -7 7 -7 0 -10 -3 -7 -7z" />
    <path d="M9060 1230 c0 -7 3 -10 7 -7 3 4 3 10 0 14 -4 3 -7 0 -7 -7z" />
    <path d="M9090 1160 c0 -7 3 -10 7 -7 3 4 3 10 0 14 -4 3 -7 0 -7 -7z" />
    <path d="M8820 1120 c0 -7 3 -10 7 -7 3 4 3 10 0 14 -4 3 -7 0 -7 -7z" />
    <path d="M9210 1026 c0 -2 7 -7 16 -10 l15 -6 -6 10 c-6 10 -25 14 -25 6z" />
    <path d="M9820 820 l-15 -10 12 0 c6 0 15 5 18 10 8 12 4 12 -15 0z" />
  </g>
  <g transform="translate(0.000000,280.000000) scale(0.100000,-0.100000)" fill="#c2d1e4" stroke="none">
    <path d="M10393 2053 c4 -3 10 -3 14 0 3 4 0 7 -7 7 -7 0 -10 -3 -7 -7z" />
    <path d="M12481 2024 l1 -19 5 13 c3 7 2 16 -1 19 -3 4 -6 -2 -5 -13z" />
    <path d="M12120 1800 c0 -7 3 -10 7 -7 3 4 3 10 0 14 -4 3 -7 0 -7 -7z" />
    <path d="M11290 1470 c0 -7 3 -10 7 -7 3 4 3 10 0 14 -4 3 -7 0 -7 -7z" />
    <path d="M11290 1350 c0 -7 3 -10 7 -7 3 4 3 10 0 14 -4 3 -7 0 -7 -7z" />
    <path d="M11291 1304 l1 -19 5 13 c3 7 2 16 -1 19 -3 4 -6 -2 -5 -13z" />
    <path d="M9543 963 c4 -3 10 -3 14 0 3 4 0 7 -7 7 -7 0 -10 -3 -7 -7z" />
    <path d="M9613 743 c4 -3 10 -3 14 0 3 4 0 7 -7 7 -7 0 -10 -3 -7 -7z" />
  </g>
  <g transform="translate(0.000000,280.000000) scale(0.100000,-0.100000)" fill="#9ab4dc" stroke="none">
    <path d="M9859 1763 l-24 -28 28 24 c15 14 27 26 27 28 0 8 -8 1 -31 -24z" />
    <path d="M9154 1738 l-7 -11 11 7 c12 7 16 16 8 16 -3 0 -8 -5 -12 -12z" />
    <path d="M8780 1550 c0 -7 3 -10 7 -7 3 4 3 10 0 14 -4 3 -7 0 -7 -7z" />
    <path d="M8780 1260 c0 -7 3 -10 7 -7 3 4 3 10 0 14 -4 3 -7 0 -7 -7z" />
    <path d="M8955 920 c10 -11 20 -20 23 -20 3 0 -3 9 -13 20 -10 11 -20 20 -23
20 -3 0 3 -9 13 -20z" />
    <path d="M9353 733 c4 -3 10 -3 14 0 3 4 0 7 -7 7 -7 0 -10 -3 -7 -7z" />
  </g>
  <g transform="translate(0.000000,280.000000) scale(0.100000,-0.100000)" fill="#a1bfd8" stroke="none">
    <path d="M9623 2063 c4 -3 10 -3 14 0 3 4 0 7 -7 7 -7 0 -10 -3 -7 -7z" />
    <path d="M9243 2053 c4 -3 10 -3 14 0 3 4 0 7 -7 7 -7 0 -10 -3 -7 -7z" />
    <path d="M8984 1918 l-7 -11 11 7 c12 7 16 16 8 16 -3 0 -8 -5 -12 -12z" />
    <path d="M9353 1843 c4 -3 10 -3 14 0 3 4 0 7 -7 7 -7 0 -10 -3 -7 -7z" />
  </g>
  <g transform="translate(0.000000,280.000000) scale(0.100000,-0.100000)" fill="#cddde2" stroke="none">
    <path d="M9363 733 c4 -3 10 -3 14 0 3 4 0 7 -7 7 -7 0 -10 -3 -7 -7z" />
  </g>
  <g transform="translate(0.000000,280.000000) scale(0.100000,-0.100000)" fill="#b4cbea" stroke="none" />
</svg>